<svg xmlns="http://www.w3.org/2000/svg" xmlns:xlink="http://www.w3.org/1999/xlink" width="61.539" height="71.297" viewBox="0 0 61.539 71.297">
  <defs>
    <clipPath id="clip-path">
      <path id="Path_37" data-name="Path 37" d="M-799.246,65.636l29.228,10.683L-779.9,62.814Z" transform="translate(799.246 -62.814)" fill="#db000c"/>
    </clipPath>
  </defs>
  <g id="Group_3032" data-name="Group 3032" transform="translate(-7380.608 -13216.973)">
    <g id="Group_2432" data-name="Group 2432" transform="translate(7380.608 13216.973)">
      <g id="Group_4" data-name="Group 4" transform="translate(23.27 57.792)">
        <path id="Path_36" data-name="Path 36" d="M-799.246,65.636l29.228,10.683L-779.9,62.814Z" transform="translate(799.246 -62.814)" fill="#db000c"/>
        <g id="Group_3" data-name="Group 3" transform="translate(0 0)" clip-path="url(#clip-path)">
          <circle id="Ellipse_1" data-name="Ellipse 1" cx="30.769" cy="30.769" r="30.769" transform="translate(-21.853 -55.666)" fill="#bb0010"/>
        </g>
      </g>
      <circle id="Ellipse_2" data-name="Ellipse 2" cx="30.769" cy="30.769" r="30.769" transform="translate(0 0)" fill="#db000c"/>
      <g id="Group_5" data-name="Group 5" transform="translate(14.421 16.719)">
        <path id="Path_38" data-name="Path 38" d="M-773.976,17.15a3.611,3.611,0,0,1-.335.553,1.259,1.259,0,0,1-1.388.4,1.3,1.3,0,0,1-.965-1.185,10.4,10.4,0,0,0-8.383-9.225,8.165,8.165,0,0,0-.926-.145,1.38,1.38,0,0,1-1.311-1.134,1.33,1.33,0,0,1,.93-1.511.38.38,0,0,0,.074-.053h.753c.232.047.464.09.695.144A13.591,13.591,0,0,1-774.4,14.582c.192.589.287,1.209.427,1.815Z" transform="translate(804.614 -4.847)" fill="#fff"/>
        <path id="Path_39" data-name="Path 39" d="M-800.69,18.893a19.646,19.646,0,0,0,6.135,6.118c.3-.312.573-.63.881-.91a4.129,4.129,0,0,1,4.324-.952,24.686,24.686,0,0,0,3.609.885,4.28,4.28,0,0,1,3.259,3.42,8.417,8.417,0,0,1,.059,1.092c.007,1.067-.011,2.134,0,3.2a4.112,4.112,0,0,1-4.829,4.292,27.987,27.987,0,0,1-11.429-4.09,27.845,27.845,0,0,1-12.587-17.919,13,13,0,0,1-.463-3.5,3.993,3.993,0,0,1,3.43-3.755,8.377,8.377,0,0,1,1.092-.06c1.15-.008,2.3-.006,3.451,0a4.384,4.384,0,0,1,4.1,3.654,20.533,20.533,0,0,0,.781,3.148,4.294,4.294,0,0,1-1.015,4.54c-.245.259-.5.505-.751.758A.441.441,0,0,0-800.69,18.893Zm15.575,11.126V27.949c0-.021,0-.042,0-.063a1.1,1.1,0,0,0-1.062-1.209,19.054,19.054,0,0,1-4.209-1.051,1.131,1.131,0,0,0-1.311.3c-.54.555-1.092,1.1-1.641,1.642a1.334,1.334,0,0,1-1.789.238,22.866,22.866,0,0,1-8.394-8.4,1.327,1.327,0,0,1,.227-1.765c.53-.535,1.053-1.078,1.6-1.595a1.227,1.227,0,0,0,.328-1.472,18.04,18.04,0,0,1-1.014-4.089,1.079,1.079,0,0,0-1.162-1.074c-1.432-.022-2.866,0-4.3-.01a1.355,1.355,0,0,0-1.214,1.434c.225,1.156.329,2.339.616,3.478A25.488,25.488,0,0,0-786.829,33.39a1.414,1.414,0,0,0,1.725-1.52C-785.158,31.258-785.114,30.637-785.115,30.02Z" transform="translate(811.735 -5.391)" fill="#fff"/>
        <path id="Path_40" data-name="Path 40" d="M-780.663,20.378a1.344,1.344,0,0,1-1.339-1.1,5.047,5.047,0,0,0-4.213-4.207,1.354,1.354,0,0,1-1.062-1.627,1.345,1.345,0,0,1,1.626-1.005,8.323,8.323,0,0,1,6.31,6.383A1.344,1.344,0,0,1-780.663,20.378Z" transform="translate(804.615 -7.052)" fill="#fff"/>
      </g>
    </g>
  </g>
</svg>
