<svg xmlns="http://www.w3.org/2000/svg" xmlns:xlink="http://www.w3.org/1999/xlink" width="48.231" height="58.644" viewBox="0 0 48.231 58.644">
  <defs>
    <clipPath id="clip-path">
      <path id="Path_5249" data-name="Path 5249" d="M0,27.308H48.231V-31.336H0Z" transform="translate(0 31.336)" fill="none"/>
    </clipPath>
  </defs>
  <g id="Group_3031" data-name="Group 3031" transform="translate(-399.763 -466.751)">
    <g id="foreword2" transform="translate(399.763 466.751)">
      <g id="Group_2650" data-name="Group 2650" clip-path="url(#clip-path)">
        <g id="Group_2640" data-name="Group 2640" transform="translate(25.212 48.779)">
          <path id="Path_5239" data-name="Path 5239" d="M6.232,0H-1.9c-3.24,0-5.251,2.117-5.251,5.523V8.77a1.1,1.1,0,0,0,1.1,1.095A1.1,1.1,0,0,0-4.96,8.77V5.523c0-2.21,1.029-3.331,3.06-3.331H6.232c2.031,0,3.06,1.121,3.06,3.331V8.77a1.1,1.1,0,0,0,2.191,0V5.523C11.483,2.117,9.471,0,6.232,0" transform="translate(7.151)" fill="#fff"/>
        </g>
        <g id="Group_2641" data-name="Group 2641" transform="translate(29.596 36.722)">
          <path id="Path_5240" data-name="Path 5240" d="M2.3,4.593A4.933,4.933,0,0,0,7.23-.34,4.932,4.932,0,0,0,2.3-5.271,4.932,4.932,0,0,0-2.636-.34,4.94,4.94,0,0,0,2.3,4.593m0-7.673A2.74,2.74,0,0,1,5.037-.34,2.74,2.74,0,0,1,2.3,2.4,2.74,2.74,0,0,1-.443-.34,2.744,2.744,0,0,1,2.3-3.08" transform="translate(2.636 5.271)" fill="#fff"/>
        </g>
        <g id="Group_2642" data-name="Group 2642" transform="translate(4.385 48.779)">
          <path id="Path_5241" data-name="Path 5241" d="M6.232,0H-1.9c-3.24,0-5.251,2.117-5.251,5.523V8.77a1.1,1.1,0,0,0,1.1,1.095A1.1,1.1,0,0,0-4.96,8.77V5.523c0-2.21,1.029-3.331,3.06-3.331H6.232c2.031,0,3.06,1.121,3.06,3.331V8.77a1.1,1.1,0,0,0,2.191,0V5.523C11.483,2.117,9.471,0,6.232,0" transform="translate(7.151)" fill="#fff"/>
        </g>
        <g id="Group_2643" data-name="Group 2643" transform="translate(8.769 36.722)">
          <path id="Path_5242" data-name="Path 5242" d="M2.3,4.593A4.933,4.933,0,0,0,7.23-.34,4.932,4.932,0,0,0,2.3-5.271,4.932,4.932,0,0,0-2.636-.34,4.94,4.94,0,0,0,2.3,4.593m0-7.673A2.74,2.74,0,0,1,5.037-.34,2.74,2.74,0,0,1,2.3,2.4,2.74,2.74,0,0,1-.443-.34,2.744,2.744,0,0,1,2.3-3.08" transform="translate(2.636 5.271)" fill="#fff"/>
        </g>
        <g id="Group_2644" data-name="Group 2644" transform="translate(18.088 0)">
          <path id="Path_5243" data-name="Path 5243" d="M2.807,5.615A6.028,6.028,0,0,0,8.835-.413a6.028,6.028,0,0,0-6.028-6.03A6.028,6.028,0,0,0-3.221-.413,6.035,6.035,0,0,0,2.807,5.615m0-9.864A3.836,3.836,0,0,1,6.643-.413,3.837,3.837,0,0,1,2.807,3.423,3.837,3.837,0,0,1-1.03-.413,3.839,3.839,0,0,1,2.807-4.25" transform="translate(3.221 6.443)" fill="#fff"/>
        </g>
        <g id="Group_2645" data-name="Group 2645" transform="translate(41.654 34.529)">
          <path id="Path_5244" data-name="Path 5244" d="M0,5.426a1.1,1.1,0,1,0,2.191,0V-6.226H0Z" transform="translate(0 6.226)" fill="#fff"/>
        </g>
        <g id="Group_2646" data-name="Group 2646" transform="translate(4.386 34.529)">
          <path id="Path_5245" data-name="Path 5245" d="M1.02,5.426V-6.226H-1.171V5.426a1.1,1.1,0,0,0,1.095,1.1,1.1,1.1,0,0,0,1.1-1.1" transform="translate(1.171 6.226)" fill="#fff"/>
        </g>
        <g id="Group_2647" data-name="Group 2647" transform="translate(27.042 11.559)">
          <path id="Path_5246" data-name="Path 5246" d="M1.035,1C3.8,1,5.2,2.388,5.2,5.134v5.729H7.395V5.134C7.395,1.486,5.375-.8,1.95-1.145A8.239,8.239,0,0,1-1.188,1Z" transform="translate(1.188 1.145)" fill="#fff"/>
        </g>
        <g id="Group_2648" data-name="Group 2648" transform="translate(12.607 11.56)">
          <path id="Path_5247" data-name="Path 5247" d="M1.02,2.923c0-2.744,1.4-4.136,4.166-4.136H7.41A8.221,8.221,0,0,1,4.273-3.354C.846-3.013-1.171-.725-1.171,2.923v5.73H1.02Z" transform="translate(1.171 3.354)" fill="#fff"/>
        </g>
        <g id="Group_2649" data-name="Group 2649" transform="translate(0 15.895)">
          <path id="Path_5248" data-name="Path 5248" d="M21.949,4.593H.026V2.177A3.849,3.849,0,0,0,2.218-1.435,3.6,3.6,0,0,0-1.07-5.271,3.6,3.6,0,0,0-4.358-1.435,3.846,3.846,0,0,0-2.167,2.177V4.593H-24.089a1.1,1.1,0,0,0-1.1,1.095v4.387a1.1,1.1,0,0,0,1.095,1.095h46.04a1.1,1.1,0,0,0,1.1-1.095V5.69a1.1,1.1,0,0,0-1.1-1.1M-1.07-3.08c.584,0,1.1.769,1.1,1.645S-.486.209-1.07.209s-1.1-.769-1.1-1.643.513-1.645,1.1-1.645M20.852,8.978H-22.995V6.787H20.852Z" transform="translate(25.186 5.271)" fill="#fff"/>
        </g>
      </g>
    </g>
  </g>
</svg>
