<svg xmlns="http://www.w3.org/2000/svg" xmlns:xlink="http://www.w3.org/1999/xlink" width="72.039" height="83.462" viewBox="0 0 72.039 83.462">
  <defs>
    <clipPath id="clip-path">
      <path id="Path_37" data-name="Path 37" d="M-799.246,66.118l34.215,12.506-11.562-15.81Z" transform="translate(799.246 -62.814)" fill="#db000c"/>
    </clipPath>
    <clipPath id="clip-path-2">
      <path id="Path_5335" data-name="Path 5335" d="M0,22.151H44.487v-45.7H0Z" transform="translate(0 23.545)" fill="none"/>
    </clipPath>
  </defs>
  <g id="Group_3033" data-name="Group 3033" transform="translate(-135.622 -2370.478)">
    <g id="Group_3009" data-name="Group 3009" transform="translate(135.622 2370.478)">
      <g id="Group_4" data-name="Group 4" transform="translate(27.241 67.653)">
        <path id="Path_36" data-name="Path 36" d="M-799.246,66.118l34.215,12.506-11.562-15.81Z" transform="translate(799.246 -62.814)" fill="#db000c"/>
        <g id="Group_3" data-name="Group 3" transform="translate(0 0)" clip-path="url(#clip-path)">
          <circle id="Ellipse_1" data-name="Ellipse 1" cx="36.019" cy="36.019" r="36.019" transform="translate(-25.582 -65.165)" fill="#bb0010"/>
        </g>
      </g>
      <circle id="Ellipse_2" data-name="Ellipse 2" cx="36.019" cy="36.019" r="36.019" fill="#db000c"/>
    </g>
    <g id="Group_2764" data-name="Group 2764" transform="translate(149.397 2384.513)" clip-path="url(#clip-path-2)">
      <g id="Group_2755" data-name="Group 2755" transform="translate(19.753 36.043)">
        <path id="Path_5326" data-name="Path 5326" d="M.522,0A13.62,13.62,0,0,1-.555.9L.32,2.133a15.527,15.527,0,0,0,1.2-1Z" transform="translate(0.555)" fill="#fff"/>
      </g>
      <g id="Group_2756" data-name="Group 2756" transform="translate(22.031 27.996)">
        <path id="Path_5327" data-name="Path 5327" d="M0,3.283l1.13.99A15.437,15.437,0,0,0,4.489-3.263L3.024-3.49A13.892,13.892,0,0,1,0,3.283" transform="translate(0 3.49)" fill="#fff"/>
      </g>
      <g id="Group_2757" data-name="Group 2757" transform="translate(0 13.703)">
        <path id="Path_5328" data-name="Path 5328" d="M2.493,10.774a3.556,3.556,0,0,1,1.531,2.911v6.092a.752.752,0,0,0,.741.763h8.9a.752.752,0,0,0,.741-.763V13.686c0-.008-.006-.014-.006-.021s.006-.016.006-.023a3.546,3.546,0,0,1,1.537-2.87A12.4,12.4,0,0,0,18.986-6.176,11.668,11.668,0,0,0,2.487-9.3,12.4,12.4,0,0,0-.556,7.644a12.027,12.027,0,0,0,3.049,3.13m10.43,5.2H5.509V14.446h7.414Zm0-1.522,0,4.569H5.509V17.493h7.414ZM-1.158.335A10.58,10.58,0,0,1,8.7-9.911,10.493,10.493,0,0,1,19.572.216a10.765,10.765,0,0,1-4.474,9.3,5.124,5.124,0,0,0-2.119,3.408H9.957V6.763a4.54,4.54,0,0,0,3.707-4.5H12.181a2.968,2.968,0,1,1-5.933,0H4.765a4.54,4.54,0,0,0,3.707,4.5v6.162H5.454A5.115,5.115,0,0,0,3.333,9.519,10.719,10.719,0,0,1-1.158.335" transform="translate(2.65 11.453)" fill="#fff"/>
      </g>
      <g id="Group_2758" data-name="Group 2758" transform="translate(19.154 24.233)">
        <path id="Path_5329" data-name="Path 5329" d="M.06.805H1.543A9.527,9.527,0,0,0,1.4-.856L-.064-.58A7.912,7.912,0,0,1,.06.805" transform="translate(0.064 0.856)" fill="#fff"/>
      </g>
      <g id="Group_2759" data-name="Group 2759" transform="translate(9.438 16.755)">
        <path id="Path_5330" data-name="Path 5330" d="M1.176.739A7.379,7.379,0,0,1,8.085,5.585l1.382-.553A8.852,8.852,0,0,0-1.25-.439l.4,1.465A7.237,7.237,0,0,1,1.176.739" transform="translate(1.25 0.785)" fill="#fff"/>
      </g>
      <g id="Group_2760" data-name="Group 2760" transform="translate(14.089 0.001)">
        <path id="Path_5331" data-name="Path 5331" d="M12.939,0H-10.046a3.763,3.763,0,0,0-3.707,3.808v7.616h1.483V3.808a2.255,2.255,0,0,1,2.224-2.284H12.939a2.255,2.255,0,0,1,2.224,2.284V19.039a2.255,2.255,0,0,1-2.224,2.284H5.525a.732.732,0,0,0-.483.184L1.077,25V22.086a.752.752,0,0,0-.741-.763H-2.632v1.524H-.408v3.808a.752.752,0,0,0,.743.761.725.725,0,0,0,.481-.182L5.8,22.847h7.14a3.763,3.763,0,0,0,3.707-3.808V3.808A3.763,3.763,0,0,0,12.939,0" transform="translate(13.753)" fill="#fff"/>
      </g>
      <g id="Group_2761" data-name="Group 2761" transform="translate(27.434 6.855)">
        <path id="Path_5332" data-name="Path 5332" d="M1.438,4.43V3.559A2.178,2.178,0,0,0,2.825.847,2.145,2.145,0,0,0,1.75-.449L.306-1.192a.655.655,0,0,1-.283-.871.63.63,0,0,1,.565-.361H.805a.643.643,0,0,1,.633.65v.113H2.92v-.113A2.167,2.167,0,0,0,1.438-3.838v-.871H-.045v.871A2.178,2.178,0,0,0-1.433-1.126,2.145,2.145,0,0,0-.358.17L1.086.913a.657.657,0,0,1,.283.871.63.63,0,0,1-.565.361H.588A.642.642,0,0,1-.045,1.5V1.383H-1.528V1.5A2.167,2.167,0,0,0-.045,3.559V4.43Z" transform="translate(1.528 4.709)" fill="#fff"/>
      </g>
      <g id="Group_2762" data-name="Group 2762" transform="translate(22.244 3.809)">
        <path id="Path_5333" data-name="Path 5333" d="M7.189,3.692A7.517,7.517,0,0,0-.225-3.924,7.518,7.518,0,0,0-7.641,3.692,7.518,7.518,0,0,0-.225,11.307,7.524,7.524,0,0,0,7.189,3.692m-13.347,0A6.014,6.014,0,0,1-.225-2.4,6.012,6.012,0,0,1,5.706,3.692,6.012,6.012,0,0,1-.225,9.784,6.022,6.022,0,0,1-6.158,3.692" transform="translate(7.641 3.924)" fill="#fff"/>
      </g>
      <g id="Group_2763" data-name="Group 2763" transform="translate(0.367 10.681)">
        <path id="Path_5334" data-name="Path 5334" d="M5.233.739,5.159-.785A14.73,14.73,0,0,0-5.562,4.808l1.151.963A13.245,13.245,0,0,1,5.233.739" transform="translate(5.562 0.785)" fill="#fff"/>
      </g>
    </g>
  </g>
</svg>
