<svg xmlns="http://www.w3.org/2000/svg" xmlns:xlink="http://www.w3.org/1999/xlink" width="72.039" height="83.462" viewBox="0 0 72.039 83.462">
  <defs>
    <clipPath id="clip-path">
      <path id="Path_37" data-name="Path 37" d="M-799.246,66.118l34.215,12.506-11.562-15.81Z" transform="translate(799.246 -62.814)" fill="#db000c"/>
    </clipPath>
    <clipPath id="clip-path-2">
      <path id="Path_5453" data-name="Path 5453" d="M0,19.192H45.226v-39H0Z" transform="translate(0 19.803)" fill="none"/>
    </clipPath>
  </defs>
  <g id="Group_3038" data-name="Group 3038" transform="translate(-135.897 -1181.583)">
    <g id="Group_3020" data-name="Group 3020" transform="translate(135.897 1181.583)">
      <g id="Group_4" data-name="Group 4" transform="translate(27.241 67.653)">
        <path id="Path_36" data-name="Path 36" d="M-799.246,66.118l34.215,12.506-11.562-15.81Z" transform="translate(799.246 -62.814)" fill="#db000c"/>
        <g id="Group_3" data-name="Group 3" transform="translate(0 0)" clip-path="url(#clip-path)">
          <circle id="Ellipse_1" data-name="Ellipse 1" cx="36.019" cy="36.019" r="36.019" transform="translate(-25.582 -65.165)" fill="#bb0010"/>
        </g>
      </g>
      <circle id="Ellipse_2" data-name="Ellipse 2" cx="36.019" cy="36.019" r="36.019" fill="#db000c"/>
    </g>
    <g id="Group_2908" data-name="Group 2908" transform="translate(149.681 1194.02)" clip-path="url(#clip-path-2)">
      <g id="Group_2905" data-name="Group 2905" transform="translate(4.935 -0.001)">
        <path id="Path_5450" data-name="Path 5450" d="M15.933,7.371V27.013c0,.912-.026,1.827,0,2.731v.037l1.5-1.607h-28.4c-1.308,0-2.615-.032-3.919,0h-.055q.747.8,1.5,1.607V10.139c0-.91.024-1.825,0-2.731V7.371c-.25.461-.494.927-.744,1.388.54-.445,1.073-.89,1.613-1.335,1.294-1.065,2.582-2.131,3.875-3.2Q-6.372,2.306-4.036.38-2.013-1.292.014-2.961C.668-3.5,1.342-4.017,1.976-4.58a.141.141,0,0,1,.03-.022H.493c.54.445,1.073.89,1.613,1.335C3.4-2.2,4.687-1.136,5.981-.069l4.665,3.846q2.02,1.672,4.049,3.342c.654.536,1.288,1.109,1.963,1.619a.282.282,0,0,1,.03.022,1.416,1.416,0,0,0,1.154.16,1.537,1.537,0,0,0,.894-.738,1.735,1.735,0,0,0,.15-1.239,1.89,1.89,0,0,0-.689-.959c-.54-.443-1.073-.888-1.613-1.333C15.289,3.584,14,2.517,12.708,1.451L8.043-2.394Q6.022-4.066,3.994-5.736C3.34-6.272,2.706-6.845,2.031-7.355c-.01-.006-.02-.016-.03-.022a1.363,1.363,0,0,0-1.512,0C-.066-6.921-.62-6.461-1.175-6L-5.129-2.743Q-7.5-.79-9.873,1.168L-13.9,4.488c-.6.494-1.2.992-1.8,1.485a1.753,1.753,0,0,0-.425.417,1.754,1.754,0,0,0-.319.981v22.4a1.576,1.576,0,0,0,1.5,1.607h28.4c1.309,0,2.617.028,3.921,0h.055a1.576,1.576,0,0,0,1.5-1.607V10.13c0-.912.022-1.821,0-2.731V7.361a1.574,1.574,0,0,0-1.5-1.609,1.6,1.6,0,0,0-1.5,1.619" transform="translate(16.44 7.605)" fill="#fff"/>
      </g>
      <g id="Group_2906" data-name="Group 2906" transform="translate(16.04 20.491)">
        <path id="Path_5451" data-name="Path 5451" d="M5.847,0H-4.534a1.578,1.578,0,0,0-1.5,1.607V16.9a1.579,1.579,0,0,0,1.5,1.607H5.847a1.578,1.578,0,0,0,1.5-1.607V1.607A1.574,1.574,0,0,0,5.847,0a1.581,1.581,0,0,0-1.5,1.607V16.9l1.5-1.607H-4.534l1.5,1.607V1.607l-1.5,1.607H5.847a1.573,1.573,0,0,0,1.5-1.607A1.582,1.582,0,0,0,5.847,0" transform="translate(6.033 0.001)" fill="#fff"/>
      </g>
      <g id="Group_2907" data-name="Group 2907" transform="translate(-0.001 0)">
        <path id="Path_5452" data-name="Path 5452" d="M1.112,10.054c.7-.579,1.4-1.158,2.1-1.735L8.262,4.151Q11.3,1.637,14.35-.873q2.635-2.177,5.277-4.356c.855-.7,1.733-1.382,2.562-2.115a.115.115,0,0,1,.035-.028H20.711c.7.579,1.4,1.158,2.1,1.737q2.523,2.079,5.049,4.167Q30.9,1.046,33.95,3.556q2.635,2.18,5.277,4.356c.855.7,1.688,1.445,2.562,2.115a.145.145,0,0,0,.035.028,1.409,1.409,0,0,0,1.154.161,1.531,1.531,0,0,0,.892-.74,1.72,1.72,0,0,0,.152-1.237,1.89,1.89,0,0,0-.689-.959c-.7-.579-1.4-1.158-2.1-1.735Q38.7,3.463,36.181,1.376q-3.039-2.514-6.087-5.023Q27.456-5.824,24.817-8c-.855-.7-1.688-1.445-2.562-2.115a.144.144,0,0,0-.035-.028,1.363,1.363,0,0,0-1.512,0c-.7.579-1.4,1.158-2.1,1.735q-2.523,2.082-5.049,4.169Q10.515-1.728,7.468.782,4.833,2.958,2.191,5.137C1.336,5.844.482,6.545-.371,7.252a.144.144,0,0,1-.035.028,1.766,1.766,0,0,0-.689.959,1.736,1.736,0,0,0,.15,1.237,1.547,1.547,0,0,0,.894.74,1.37,1.37,0,0,0,1.164-.161" transform="translate(1.147 10.374)" fill="#fff"/>
      </g>
    </g>
  </g>
</svg>
