<svg xmlns="http://www.w3.org/2000/svg" xmlns:xlink="http://www.w3.org/1999/xlink" width="72.039" height="83.462" viewBox="0 0 72.039 83.462">
  <defs>
    <clipPath id="clip-path">
      <path id="Path_37" data-name="Path 37" d="M-799.246,66.118l34.215,12.506-11.562-15.81Z" transform="translate(799.246 -62.814)" fill="#db000c"/>
    </clipPath>
    <clipPath id="clip-path-2">
      <path id="Path_5370" data-name="Path 5370" d="M0,20.422H41.932V-22.1H0Z" transform="translate(0 22.102)" fill="none"/>
    </clipPath>
  </defs>
  <g id="Group_3031" data-name="Group 3031" transform="translate(-1005.622 -2417.478)">
    <g id="Group_3011" data-name="Group 3011" transform="translate(1005.622 2417.478)">
      <g id="Group_4" data-name="Group 4" transform="translate(27.241 67.653)">
        <path id="Path_36" data-name="Path 36" d="M-799.246,66.118l34.215,12.506-11.562-15.81Z" transform="translate(799.246 -62.814)" fill="#db000c"/>
        <g id="Group_3" data-name="Group 3" transform="translate(0 0)" clip-path="url(#clip-path)">
          <circle id="Ellipse_1" data-name="Ellipse 1" cx="36.019" cy="36.019" r="36.019" transform="translate(-25.582 -65.165)" fill="#bb0010"/>
        </g>
      </g>
      <circle id="Ellipse_2" data-name="Ellipse 2" cx="36.019" cy="36.019" r="36.019" fill="#db000c"/>
    </g>
    <g id="Group_2823" data-name="Group 2823" transform="translate(1019 2459.678)">
      <path id="Path_5368" data-name="Path 5368" d="M1.492-11.144H15.845v-1.412H1.492Z" transform="translate(1.379 8.82)" fill="#fff"/>
      <g id="Group_2813" data-name="Group 2813" transform="translate(0 -22.102)" clip-path="url(#clip-path-2)">
        <g id="Group_2812" data-name="Group 2812" transform="translate(0 0)">
          <path id="Path_5369" data-name="Path 5369" d="M20.059,18.522l-3.015-7.205A2.22,2.22,0,0,0,15.9,10.188a2.14,2.14,0,0,0-.933-.142l-1.22-2.9a15.052,15.052,0,0,0,2.009-1.7h.573a2.1,2.1,0,0,0,2.153-2.12V-17.928a2.1,2.1,0,0,0-2.153-2.118H-19.556a2.1,2.1,0,0,0-2.153,2.118V3.265a2.1,2.1,0,0,0,2.153,2.118H-.251A10.6,10.6,0,0,0,7.715,8.916,9.283,9.283,0,0,0,9.725,8.7l1.22,2.9a1.474,1.474,0,0,0-.5.777,2.12,2.12,0,0,0,0,1.624l3.013,7.205A2.234,2.234,0,0,0,14.6,22.338a1.859,1.859,0,0,0,.862.14,3.15,3.15,0,0,0,.789-.14l2.655-1.06a2.064,2.064,0,0,0,1.149-2.755m-3.015-25.5a1.511,1.511,0,0,0-.215-.354h.215ZM-20.274-17.928a.673.673,0,0,1,.718-.706H16.326a.673.673,0,0,1,.718.706V-14.4H-20.274Zm0,4.945H17.044v4.239H15.682a10.6,10.6,0,0,0-7.967-3.532A10.6,10.6,0,0,0-.251-8.744H-20.274Zm.718,16.954a.673.673,0,0,1-.718-.706v-10.6H-1.4A10.145,10.145,0,0,0-2.69-4.506H-18.838v1.412h15.86A9.413,9.413,0,0,0-3.05-1.68,10.875,10.875,0,0,0-1.4,3.971ZM7.715,7.5A9.24,9.24,0,0,1-1.615-1.68a9.239,9.239,0,0,1,9.329-9.183A9.238,9.238,0,0,1,17.044-1.68,9.239,9.239,0,0,1,7.715,7.5m4.09.635c.073,0,.073-.071.144-.071l.5-.212,1.077,2.615-1.364.564L11.087,8.421Zm6.532,11.867-2.655,1.06a.816.816,0,0,1-.575,0,.581.581,0,0,1-.358-.354l-3.015-7.205a.765.765,0,0,1,0-.564.549.549,0,0,1,.287-.283l2.8-1.131c.071,0,.144-.069.215-.069a.443.443,0,0,1,.287.069.589.589,0,0,1,.36.354l3.013,7.205c.215.352.073.706-.358.918" transform="translate(21.709 20.046)" fill="#fff"/>
        </g>
      </g>
    </g>
  </g>
</svg>
