<svg xmlns="http://www.w3.org/2000/svg" xmlns:xlink="http://www.w3.org/1999/xlink" width="72.039" height="83.462" viewBox="0 0 72.039 83.462">
  <defs>
    <clipPath id="clip-path">
      <path id="Path_37" data-name="Path 37" d="M-799.246,66.118l34.215,12.506-11.562-15.81Z" transform="translate(799.246 -62.814)" fill="#db000c"/>
    </clipPath>
    <clipPath id="clip-path-2">
      <path id="Path_5391" data-name="Path 5391" d="M0,23.445H44.414V-21.228H0Z" transform="translate(0 21.228)" fill="none"/>
    </clipPath>
  </defs>
  <g id="Group_3032" data-name="Group 3032" transform="translate(-135.897 -290.17)">
    <g id="Group_3010" data-name="Group 3010" transform="translate(135.897 290.17)">
      <g id="Group_4" data-name="Group 4" transform="translate(27.241 67.653)">
        <path id="Path_36" data-name="Path 36" d="M-799.246,66.118l34.215,12.506-11.562-15.81Z" transform="translate(799.246 -62.814)" fill="#db000c"/>
        <g id="Group_3" data-name="Group 3" transform="translate(0 0)" clip-path="url(#clip-path)">
          <circle id="Ellipse_1" data-name="Ellipse 1" cx="36.019" cy="36.019" r="36.019" transform="translate(-25.582 -65.165)" fill="#bb0010"/>
        </g>
      </g>
      <circle id="Ellipse_2" data-name="Ellipse 2" cx="36.019" cy="36.019" r="36.019" fill="#db000c"/>
    </g>
    <g id="Group_2851" data-name="Group 2851" transform="translate(149.645 304.97)" clip-path="url(#clip-path-2)">
      <g id="Group_2839" data-name="Group 2839" transform="translate(0 0.001)">
        <path id="Path_5379" data-name="Path 5379" d="M22.767,8.829H-5.109A1.034,1.034,0,0,0-6.144,9.862V28.223a1.034,1.034,0,0,0,1.035,1.033h21.2v4.485l-4.127-2.679a1.037,1.037,0,0,0-1.263.107L7.329,34.278,3.444,31.13A1.033,1.033,0,0,0,2.177,31.1l-4.31,3.2-3.4-3.133a1.037,1.037,0,0,0-1.292-.086l-3.683,2.576V-3.93c0-.008,0-.013,0-.019s0-.027,0-.04V-4.25a1.094,1.094,0,0,0-.042-.278,4.194,4.194,0,0,0-.457-1.4H14.273a1.906,1.906,0,0,1,1.818,1.978V6.068a1.033,1.033,0,1,0,2.067,0V-3.949a3.971,3.971,0,0,0-3.885-4.045H-14.4a3.973,3.973,0,0,0-3.885,4.045l0,24.828a3.234,3.234,0,0,1-.547,1.951.9.9,0,0,1-.716.271h-.038a1.035,1.035,0,0,0-1.033,1.033,1.032,1.032,0,0,0,1.033,1.033h7V35.644a1.037,1.037,0,0,0,.556.918,1.034,1.034,0,0,0,1.069-.069l4.63-3.239,3.418,3.15a1.036,1.036,0,0,0,.7.274,1.037,1.037,0,0,0,.617-.2l4.354-3.235L6.72,36.447A1.033,1.033,0,0,0,8.072,36.4l3.441-3.169,5.051,3.277a1.032,1.032,0,0,0,1.6-.867V29.257h1.806A3.842,3.842,0,0,0,23.8,25.418V9.862a1.034,1.034,0,0,0-1.033-1.033M-16.609,23.1a5.947,5.947,0,0,0,.394-2.266V-3.949a1.908,1.908,0,0,1,1.822-1.978A1.9,1.9,0,0,1-12.577-3.97V23.1Zm38.343-.57H-4.075V10.9H21.734Zm0-11.635M19.962,27.19H-4.075V24.6H21.734v.821a1.773,1.773,0,0,1-1.772,1.772" transform="translate(20.614 7.994)" fill="#fff"/>
      </g>
      <g id="Group_2840" data-name="Group 2840" transform="translate(30.464 20.228)">
        <path id="Path_5380" data-name="Path 5380" d="M1.949,3.9a3.687,3.687,0,0,0,1.479-.309A3.694,3.694,0,0,0,4.908,3.9,3.72,3.72,0,0,0,8.625.183,3.72,3.72,0,0,0,4.908-3.533a3.694,3.694,0,0,0-1.479.309,3.687,3.687,0,0,0-1.479-.309A3.72,3.72,0,0,0-1.765.183,3.72,3.72,0,0,0,1.949,3.9M3.6.183a1.625,1.625,0,0,1-.17.72,1.627,1.627,0,0,1-.173-.72,1.625,1.625,0,0,1,.173-.718A1.623,1.623,0,0,1,3.6.183m2.957,0A1.65,1.65,0,0,1,5.3,1.783a3.7,3.7,0,0,0,.366-1.6,3.7,3.7,0,0,0-.366-1.6A1.649,1.649,0,0,1,6.558.183m-5-1.6a3.693,3.693,0,0,0-.366,1.6,3.7,3.7,0,0,0,.366,1.6A1.648,1.648,0,0,1,.3.183a1.647,1.647,0,0,1,1.256-1.6" transform="translate(1.765 3.533)" fill="#fff"/>
      </g>
      <g id="Group_2841" data-name="Group 2841" transform="translate(22.371 22.912)">
        <path id="Path_5381" data-name="Path 5381" d="M.542,1.085h.739A1.034,1.034,0,0,0,2.316.051,1.034,1.034,0,0,0,1.281-.982H.542A1.034,1.034,0,0,0-.491.051,1.034,1.034,0,0,0,.542,1.085" transform="translate(0.491 0.982)" fill="#fff"/>
      </g>
      <g id="Group_2842" data-name="Group 2842" transform="translate(26.069 22.912)">
        <path id="Path_5382" data-name="Path 5382" d="M.542,1.085h.739A1.036,1.036,0,0,0,2.316.051,1.034,1.034,0,0,0,1.281-.982H.542A1.034,1.034,0,0,0-.491.051,1.034,1.034,0,0,0,.542,1.085" transform="translate(0.491 0.982)" fill="#fff"/>
      </g>
      <g id="Group_2843" data-name="Group 2843" transform="translate(18.673 22.912)">
        <path id="Path_5383" data-name="Path 5383" d="M.542,1.085h.739A1.032,1.032,0,0,0,2.314.051,1.032,1.032,0,0,0,1.281-.982H.542A1.034,1.034,0,0,0-.491.051,1.034,1.034,0,0,0,.542,1.085" transform="translate(0.491 0.982)" fill="#fff"/>
      </g>
      <g id="Group_2844" data-name="Group 2844" transform="translate(13.123 3.47)">
        <path id="Path_5384" data-name="Path 5384" d="M3.2,2.048a1.033,1.033,0,1,0,2.067,0A3.011,3.011,0,0,0,2.352-.789V-.821A1.034,1.034,0,0,0,1.318-1.854,1.032,1.032,0,0,0,.285-.821V-.8A3.047,3.047,0,0,0-2.9,2.048v.1c0,.636.309,1.555,1.785,2.33a.978.978,0,0,0,.166.059s0,0,0,0c.034.011.065.027.1.036l.04.008c.019,0,.036.013.057.017l1.031.21v1.82c-.661-.008-1.12-.419-1.12-.789A1.035,1.035,0,0,0-1.868,4.807,1.032,1.032,0,0,0-2.9,5.84,3.05,3.05,0,0,0,.285,8.7v.1a1.033,1.033,0,0,0,2.067,0V8.685A3.014,3.014,0,0,0,5.268,5.842v-.1c0-.64-.318-1.568-1.82-2.357a.8.8,0,0,0-.076-.027.9.9,0,0,0-.149-.053c-.017,0-.032-.013-.048-.017l-.019,0-.011,0-.793-.162V1.3c.513.1.852.438.852.751m0,3.794c0,.351-.375.663-.85.758V5.232l.257.053a1.881,1.881,0,0,1,.591.461v.1ZM-.277,2.58a1.6,1.6,0,0,1-.556-.436v-.1c0-.366.459-.772,1.117-.781V2.7Z" transform="translate(2.901 1.854)" fill="#fff"/>
      </g>
      <g id="Group_2845" data-name="Group 2845" transform="translate(22.928 5.019)">
        <path id="Path_5385" data-name="Path 5385" d="M.542,1.085H5.553A1.034,1.034,0,0,0,6.586.051,1.034,1.034,0,0,0,5.553-.982H.542A1.034,1.034,0,0,0-.491.051,1.034,1.034,0,0,0,.542,1.085" transform="translate(0.491 0.982)" fill="#fff"/>
      </g>
      <g id="Group_2846" data-name="Group 2846" transform="translate(30.874 5.019)">
        <path id="Path_5386" data-name="Path 5386" d="M.66,1.085A1.034,1.034,0,0,0,1.694.051,1.034,1.034,0,0,0,.66-.982H.437A1.034,1.034,0,0,0-.6.051,1.034,1.034,0,0,0,.437,1.085Z" transform="translate(0.598 0.982)" fill="#fff"/>
      </g>
      <g id="Group_2847" data-name="Group 2847" transform="translate(22.928 8.417)">
        <path id="Path_5387" data-name="Path 5387" d="M.542,1.086H2.055A1.034,1.034,0,0,0,3.089.052,1.036,1.036,0,0,0,2.055-.983H.542A1.036,1.036,0,0,0-.491.052,1.034,1.034,0,0,0,.542,1.086" transform="translate(0.491 0.983)" fill="#fff"/>
      </g>
      <g id="Group_2848" data-name="Group 2848" transform="translate(27.822 8.419)">
        <path id="Path_5388" data-name="Path 5388" d="M3.508.542A1.034,1.034,0,0,0,2.472-.491H-2.143A1.034,1.034,0,0,0-3.176.542,1.032,1.032,0,0,0-2.143,1.576H2.472A1.033,1.033,0,0,0,3.508.542" transform="translate(3.176 0.491)" fill="#fff"/>
      </g>
      <g id="Group_2849" data-name="Group 2849" transform="translate(23.065 12.114)">
        <path id="Path_5389" data-name="Path 5389" d="M.542,1.086H5.923A1.032,1.032,0,0,0,6.957.052,1.034,1.034,0,0,0,5.923-.983H.542A1.036,1.036,0,0,0-.491.052,1.034,1.034,0,0,0,.542,1.086" transform="translate(0.491 0.983)" fill="#fff"/>
      </g>
      <g id="Group_2850" data-name="Group 2850" transform="translate(31.4 12.115)">
        <path id="Path_5390" data-name="Path 5390" d="M.542,0a1.034,1.034,0,0,0,0,2.069H1.1A1.034,1.034,0,0,0,1.1,0Z" transform="translate(0.491)" fill="#fff"/>
      </g>
    </g>
  </g>
</svg>
