<svg xmlns="http://www.w3.org/2000/svg" xmlns:xlink="http://www.w3.org/1999/xlink" width="72.039" height="83.462" viewBox="0 0 72.039 83.462">
  <defs>
    <clipPath id="clip-path">
      <path id="Path_37" data-name="Path 37" d="M-799.246,66.118l34.215,12.506-11.562-15.81Z" transform="translate(799.246 -62.814)" fill="#db000c"/>
    </clipPath>
    <clipPath id="clip-path-2">
      <path id="Path_5431" data-name="Path 5431" d="M0,22.693H49.467V-16.655H0Z" transform="translate(0 16.655)" fill="none"/>
    </clipPath>
  </defs>
  <g id="Group_3034" data-name="Group 3034" transform="translate(-135.897 -1812.685)">
    <g id="Group_3013" data-name="Group 3013" transform="translate(135.897 1812.685)">
      <g id="Group_4" data-name="Group 4" transform="translate(27.241 67.653)">
        <path id="Path_36" data-name="Path 36" d="M-799.246,66.118l34.215,12.506-11.562-15.81Z" transform="translate(799.246 -62.814)" fill="#db000c"/>
        <g id="Group_3" data-name="Group 3" transform="translate(0 0)" clip-path="url(#clip-path)">
          <circle id="Ellipse_1" data-name="Ellipse 1" cx="36.019" cy="36.019" r="36.019" transform="translate(-25.582 -65.165)" fill="#bb0010"/>
        </g>
      </g>
      <circle id="Ellipse_2" data-name="Ellipse 2" cx="36.019" cy="36.019" r="36.019" fill="#db000c"/>
    </g>
    <g id="Group_2877" data-name="Group 2877" transform="translate(149.968 1847.981)">
      <g id="Group_2876" data-name="Group 2876" transform="translate(0 -16.655)" clip-path="url(#clip-path-2)">
        <g id="Group_2871" data-name="Group 2871" transform="translate(0.541 23.465)">
          <path id="Path_5426" data-name="Path 5426" d="M22.336.965A3.787,3.787,0,0,0,19.5.719L10.49,3.424a2.59,2.59,0,0,0-.978-.64L2.713.178A9.94,9.94,0,0,0-3.262-.167L-7.947,1.014V.324A1.034,1.034,0,0,0-9.029-.708h-6.284A1.063,1.063,0,0,0-16.393.324V13.552a1.032,1.032,0,0,0,1.08,1.032h6.232A1.063,1.063,0,0,0-8,13.552v-.836l14.317,2.36a6.573,6.573,0,0,0,1.392.1,8.271,8.271,0,0,0,4.635-1.427l10.3-6.981a3.31,3.31,0,0,0,1.389-3.688,3.687,3.687,0,0,0-1.7-2.114m-32.5,11.555h-4.068V1.357h4.068ZM21.41,5.094l-10.3,6.984a5.984,5.984,0,0,1-4.378.933L-7.947,10.6V3.178l5.252-1.328a7.313,7.313,0,0,1,4.583.3l6.8,2.606a.633.633,0,0,1,.411.392.954.954,0,0,1,0,.541.771.771,0,0,1-.773.442L.294,4.849a1.06,1.06,0,0,0-1.238.886A1.024,1.024,0,0,0-.016,6.914L7.967,8.144c.154,0,.309.05.463.05a2.9,2.9,0,0,0,2.679-1.722,2.039,2.039,0,0,0,.206-1.082l8.808-2.656a1.377,1.377,0,0,1,1.08.1,1.357,1.357,0,0,1,.671.836,1.2,1.2,0,0,1-.463,1.425" transform="translate(16.393 0.708)" fill="#fff"/>
        </g>
        <g id="Group_2872" data-name="Group 2872" transform="translate(24.282 6.944)">
          <path id="Path_5427" data-name="Path 5427" d="M1.842,1.957H3.387A1.226,1.226,0,0,1,4.623,3.138H6.581A3.129,3.129,0,0,0,3.593.088V-1.436H1.637V.088a3.129,3.129,0,0,0-2.989,3.05A3.141,3.141,0,0,0,1.842,6.186H3.387A1.226,1.226,0,0,1,4.623,7.364,1.226,1.226,0,0,1,3.387,8.546H1.842A1.226,1.226,0,0,1,.607,7.364H-1.352a3.129,3.129,0,0,0,2.989,3.05v1.573H3.593V10.415a3.129,3.129,0,0,0,2.989-3.05A3.141,3.141,0,0,0,3.387,4.317H1.842A1.226,1.226,0,0,1,.607,3.138,1.193,1.193,0,0,1,1.842,1.957" transform="translate(1.352 1.436)" fill="#fff"/>
        </g>
        <g id="Group_2873" data-name="Group 2873" transform="translate(17.072 2.961)">
          <path id="Path_5428" data-name="Path 5428" d="M6.446,12.308A11.165,11.165,0,0,0,17.21,4.537H14.892a9.026,9.026,0,0,1-8.446,5.706,8.827,8.827,0,0,1-9.013-8.6A8.825,8.825,0,0,1,6.446-6.968a8.9,8.9,0,0,1,8.446,5.706H17.21A11.165,11.165,0,0,0,6.446-9.033,10.923,10.923,0,0,0-4.731,1.639,10.923,10.923,0,0,0,6.446,12.308" transform="translate(4.731 9.033)" fill="#fff"/>
        </g>
        <g id="Group_2874" data-name="Group 2874" transform="translate(35.149 9.009)">
          <path id="Path_5429" data-name="Path 5429" d="M8.08,2.24,4.321-1.348a1.156,1.156,0,0,0-1.545,0,1.031,1.031,0,0,0,0,1.474l1.9,1.819H-4.848A1.065,1.065,0,0,0-5.93,2.977,1.034,1.034,0,0,0-4.848,4.01H4.68l-1.9,1.819a1.034,1.034,0,0,0,0,1.477,1.158,1.158,0,0,0,1.545,0L8.08,3.715a1.035,1.035,0,0,0,0-1.474" transform="translate(5.93 1.644)" fill="#fff"/>
        </g>
        <g id="Group_2875" data-name="Group 2875" transform="translate(0 0)">
          <path id="Path_5430" data-name="Path 5430" d="M7.664.374a2.188,2.188,0,0,0-3.019,0L1.351,3.6-1.989.329a2.185,2.185,0,0,0-3.017,0,2.072,2.072,0,0,0,0,2.953L-1.668,6.55-5.006,9.817a2.072,2.072,0,0,0,0,2.953A2.167,2.167,0,0,0-3.5,13.4a2.166,2.166,0,0,0,1.507-.626L1.351,9.5,4.69,12.771a2.133,2.133,0,0,0,3.019,0,2.072,2.072,0,0,0,0-2.953L4.371,6.55,7.709,3.283A1.983,1.983,0,0,0,7.664.374" transform="translate(5.625 0.275)" fill="#fff"/>
        </g>
      </g>
    </g>
  </g>
</svg>
