<svg xmlns="http://www.w3.org/2000/svg" xmlns:xlink="http://www.w3.org/1999/xlink" width="72.039" height="83.462" viewBox="0 0 72.039 83.462">
  <defs>
    <clipPath id="clip-path">
      <path id="Path_37" data-name="Path 37" d="M-799.246,66.118l34.215,12.506-11.562-15.81Z" transform="translate(799.246 -62.814)" fill="#db000c"/>
    </clipPath>
    <clipPath id="clip-path-2">
      <path id="Path_5314" data-name="Path 5314" d="M0,19.721H41.141V-27.061H0Z" transform="translate(0 27.061)" fill="none"/>
    </clipPath>
  </defs>
  <g id="Group_3035" data-name="Group 3035" transform="translate(-1015 -2276.284)">
    <g id="Group_3019" data-name="Group 3019" transform="translate(1015 2276.284)">
      <g id="Group_4" data-name="Group 4" transform="translate(27.241 67.653)">
        <path id="Path_36" data-name="Path 36" d="M-799.246,66.118l34.215,12.506-11.562-15.81Z" transform="translate(799.246 -62.814)" fill="#db000c"/>
        <g id="Group_3" data-name="Group 3" transform="translate(0 0)" clip-path="url(#clip-path)">
          <circle id="Ellipse_1" data-name="Ellipse 1" cx="36.019" cy="36.019" r="36.019" transform="translate(-25.582 -65.165)" fill="#bb0010"/>
        </g>
      </g>
      <circle id="Ellipse_2" data-name="Ellipse 2" cx="36.019" cy="36.019" r="36.019" fill="#db000c"/>
    </g>
    <g id="Group_3017" data-name="Group 3017" transform="translate(1029.449 2320.228)">
      <g id="Group_2728" data-name="Group 2728" transform="translate(1 -29.69)" clip-path="url(#clip-path-2)">
        <g id="Group_2724" data-name="Group 2724" transform="translate(33.996 13.37)">
          <path id="Path_5310" data-name="Path 5310" d="M.488,2.336A1.176,1.176,0,0,0,1.647,1.144V-2.011A1.176,1.176,0,0,0,.488-3.206,1.176,1.176,0,0,0-.67-2.011V1.144A1.176,1.176,0,0,0,.488,2.336" transform="translate(0.67 3.206)" fill="#fff"/>
        </g>
        <g id="Group_2725" data-name="Group 2725" transform="translate(33.996 5.265)">
          <path id="Path_5311" data-name="Path 5311" d="M.488,2.334A1.176,1.176,0,0,0,1.647,1.141V-2.01A1.176,1.176,0,0,0,.488-3.2,1.176,1.176,0,0,0-.67-2.01V1.147A1.176,1.176,0,0,0,.488,2.334" transform="translate(0.67 3.203)" fill="#fff"/>
        </g>
        <g id="Group_2726" data-name="Group 2726" transform="translate(33.996 21.479)">
          <path id="Path_5312" data-name="Path 5312" d="M.488,2.334A1.176,1.176,0,0,0,1.647,1.141V-2.01A1.176,1.176,0,0,0,.488-3.2,1.176,1.176,0,0,0-.67-2.01V1.141A1.176,1.176,0,0,0,.488,2.334" transform="translate(0.67 3.203)" fill="#fff"/>
        </g>
        <g id="Group_2727" data-name="Group 2727" transform="translate(0.001 0.001)">
          <path id="Path_5313" data-name="Path 5313" d="M.405,18.228a1.273,1.273,0,0,0,.2,0,1.167,1.167,0,0,0,1.139-.989L4.933-1.729a7.458,7.458,0,0,1,3.58-5.226,36.8,36.8,0,0,1,3.6-1.829,22.586,22.586,0,0,1,3.8-1.336v7.957a7.487,7.487,0,0,0-.838-.287,1.157,1.157,0,0,0-1.428.833,1.2,1.2,0,0,0,.807,1.473A4.488,4.488,0,0,1,16.128.7a9.971,9.971,0,0,1-2.707,2.863,1.225,1.225,0,0,0-.3,1.672,1.143,1.143,0,0,0,1.62.3,12.325,12.325,0,0,0,3.418-3.679L21.93-4.272a2.008,2.008,0,0,1,2.818-.662,2.147,2.147,0,0,1,.641,2.9l-2.816,4.7a11.443,11.443,0,0,0-1.634,6.243,8.857,8.857,0,0,1-3.7,7.524l-.3.214a10.972,10.972,0,0,0-3.056,3.279,1.221,1.221,0,0,0,.368,1.653,1.143,1.143,0,0,0,1.6-.379,8.664,8.664,0,0,1,2.4-2.583l.306-.214A11.112,11.112,0,0,0,22.43,13.46l.284.3a3.581,3.581,0,0,0,5.172.035,3.8,3.8,0,0,0,.925-1.571,3.547,3.547,0,0,0,4.237-2.766,3.754,3.754,0,0,0-.112-2.007l-.055-.168h4.69a3.063,3.063,0,0,0,3.015-3.107V-21.905a3.063,3.063,0,0,0-3.015-3.107H18.925a3.063,3.063,0,0,0-3.015,3.107v9.3A23.892,23.892,0,0,0,11.184-11,39.67,39.67,0,0,0,7.36-9.018,9.839,9.839,0,0,0,2.651-2.1L-.539,16.848A1.19,1.19,0,0,0,.4,18.228h0m25.771-6.047a1.314,1.314,0,0,1-1.81-.105l-1.227-1.288a11.594,11.594,0,0,0,.116-1.943,9.05,9.05,0,0,1,.1-1.575h1.293a.1.1,0,0,0,.031.071l1.807,3.027a1.423,1.423,0,0,1-.306,1.813m3.973-2.387a1.2,1.2,0,0,1-1.592-.477c-.038-.066-.071-.133-.107-.2l-1.1-1.843H30.43l.33.956a1.288,1.288,0,0,1-.612,1.556ZM24.49-22.626H37.57a.711.711,0,0,1,.7.721V4.161a.711.711,0,0,1-.7.721H24.046a8.911,8.911,0,0,1,.5-.954L27.376-.764a4.576,4.576,0,0,0-1.392-6.189L25.911-7a4.3,4.3,0,0,0-1.426-.558Zm-6.26.721a.712.712,0,0,1,.695-.721h3.241V-7.351a4.383,4.383,0,0,0-2.154,1.8L18.244-2.683Z" transform="translate(0.556 25.012)" fill="#fff"/>
        </g>
      </g>
    </g>
  </g>
</svg>
