<svg xmlns="http://www.w3.org/2000/svg" xmlns:xlink="http://www.w3.org/1999/xlink" width="72.039" height="83.462" viewBox="0 0 72.039 83.462">
  <defs>
    <clipPath id="clip-path">
      <path id="Path_37" data-name="Path 37" d="M-799.246,66.118l34.215,12.506-11.562-15.81Z" transform="translate(799.246 -62.814)" fill="#db000c"/>
    </clipPath>
    <clipPath id="clip-path-2">
      <path id="Path_5378" data-name="Path 5378" d="M0,22.949H48.812v-44.67H0Z" transform="translate(0 21.721)" fill="none"/>
    </clipPath>
  </defs>
  <g id="Group_3033" data-name="Group 3033" transform="translate(-135.897 -647.892)">
    <g id="Group_3012" data-name="Group 3012" transform="translate(135.897 647.892)">
      <g id="Group_4" data-name="Group 4" transform="translate(27.241 67.653)">
        <path id="Path_36" data-name="Path 36" d="M-799.246,66.118l34.215,12.506-11.562-15.81Z" transform="translate(799.246 -62.814)" fill="#db000c"/>
        <g id="Group_3" data-name="Group 3" transform="translate(0 0)" clip-path="url(#clip-path)">
          <circle id="Ellipse_1" data-name="Ellipse 1" cx="36.019" cy="36.019" r="36.019" transform="translate(-25.582 -65.165)" fill="#bb0010"/>
        </g>
      </g>
      <circle id="Ellipse_2" data-name="Ellipse 2" cx="36.019" cy="36.019" r="36.019" fill="#db000c"/>
    </g>
    <g id="Group_2837" data-name="Group 2837" transform="translate(145.848 658.048)" clip-path="url(#clip-path-2)">
      <g id="Group_2831" data-name="Group 2831" transform="translate(-0.001 21.424)">
        <path id="Path_5372" data-name="Path 5372" d="M21.769,3.618,18.355-.874a6.513,6.513,0,0,0-5.15-2.55H.294A5.97,5.97,0,0,0-3.917-1.672L-10.1,4.561H-15.21A5.392,5.392,0,0,0-20.6,9.952v1.532A4.315,4.315,0,0,0-16.289,15.8h1.618a5.459,5.459,0,0,0,6.7,3.833A5.456,5.456,0,0,0-4.139,15.8H12.282a5.458,5.458,0,0,0,10.534,0h1.078a4.313,4.313,0,0,0,4.315-4.313V7.827a3.231,3.231,0,0,0-2.39-3.12ZM-9.4,17.668a3.307,3.307,0,0,1-3.307-3.3,3.305,3.305,0,0,1,3.307-3.3,3.3,3.3,0,0,1,3.3,3.3,3.31,3.31,0,0,1-3.3,3.3m26.963,0a3.312,3.312,0,1,0-.01,0h-.006Zm8.467-6.184a2.157,2.157,0,0,1-2.157,2.157h-.915a5.459,5.459,0,0,0-10.826,0H-3.983A5.455,5.455,0,0,0-10.1,8.936a5.457,5.457,0,0,0-4.707,4.705h-1.483a2.158,2.158,0,0,1-2.157-2.157V9.952A3.237,3.237,0,0,1-15.21,6.717h5.555A1.073,1.073,0,0,0-8.89,6.4L-2.381-.15a3.773,3.773,0,0,1,2.7-1.117H13.2a4.312,4.312,0,0,1,3.43,1.7l3.646,4.781a1.074,1.074,0,0,0,.576.389l4.385,1.187a1.076,1.076,0,0,1,.8,1.039Z" transform="translate(20.604 3.424)" fill="#fff"/>
      </g>
      <g id="Group_2832" data-name="Group 2832" transform="translate(27.351 4.609)">
        <path id="Path_5373" data-name="Path 5373" d="M4.776,1.929A10.1,10.1,0,0,0,2.964.308c-.11-.087-.507-.353-.926-.6A11.678,11.678,0,0,0-1.277-1.7c-1.108-.245-1.865-.128-2.194.341L-4.364-.093C-5.083.931-3.206,2.844-1.071,4.123A9.714,9.714,0,0,0,3.252,5.651,1.38,1.38,0,0,0,4.44,5.186l.89-1.269c.329-.467.138-1.156-.555-1.989M-2.282-1.316a4.038,4.038,0,0,1,.876.109A11.14,11.14,0,0,1,1.74.129a10.487,10.487,0,0,1,2.6,2.108c.514.621.714,1.145.531,1.4s-.784.3-1.606.121A11.14,11.14,0,0,1,.12,2.426,10.487,10.487,0,0,1-2.482.318C-3-.3-3.193-.825-3.01-1.086a.884.884,0,0,1,.728-.23M-3.9.185l.378-.537a2.989,2.989,0,0,0,.364.658l-.563.8C-3.969.7-4.039.376-3.9.185Zm.512,1.376.574-.816A10.092,10.092,0,0,0-1.038,2.3l-.592.841A9.242,9.242,0,0,1-3.391,1.561Zm2.2,1.878L-.6,2.6c.136.088.274.175.415.259a14.225,14.225,0,0,0,1.738.886l-.588.837A13.174,13.174,0,0,1-.775,3.7c-.14-.086-.278-.173-.413-.261Zm5.17,1.47c-.251.354-1.222.308-2.493-.138l.586-.831a8.682,8.682,0,0,0,1.065.317,4.859,4.859,0,0,0,1.006.125c.074,0,.144,0,.212-.008Z" transform="translate(4.52 1.826)" fill="#fff" stroke="#fff" stroke-width="0.4"/>
      </g>
      <g id="Group_2833" data-name="Group 2833" transform="translate(19.419 3.463)">
        <path id="Path_5374" data-name="Path 5374" d="M2.717,2.551A8.321,8.321,0,0,0,3.248-.326c-.031-1.166-.463-1.538-.821-1.645L1.084-2.376C-.024-2.709-1.353-.824-2.038,1.12A8.368,8.368,0,0,0-2.57,4c.033,1.164.465,1.538.823,1.645L-.4,6.047a.876.876,0,0,0,.263.037c1.049,0,2.227-1.742,2.859-3.533M1.563,3.826.745,3.579a10.3,10.3,0,0,0,.627-1.433c.041-.115.08-.23.117-.348l.823.247c-.037.115-.076.23-.117.35a9.733,9.733,0,0,1-.631,1.431M2.7-.316v0a6.877,6.877,0,0,1-.247,1.867l-.823-.247A7.8,7.8,0,0,0,1.9-.556Zm-.06-.551L1.874-1.1a2.611,2.611,0,0,0-.117-.543l.5.15c.175.053.308.28.383.625M-1.517,1.276C-.791-.782.284-1.909.819-1.909A.346.346,0,0,1,.911-1.9c.5.148.712,1.7-.062,3.885A8.245,8.245,0,0,1-.471,4.449c-.428.514-.853.784-1.108.71S-2,4.63-2.021,3.983a7.9,7.9,0,0,1,.5-2.706m1.283,4.29-.5-.15a3.358,3.358,0,0,0,.7-.656,6.365,6.365,0,0,0,.516-.726l.814.245C.7,5.212.089,5.663-.234,5.566" transform="translate(2.572 2.415)" fill="#fff" stroke="#fff" stroke-width="0.4"/>
      </g>
      <g id="Group_2834" data-name="Group 2834" transform="translate(22.294 13.496)">
        <path id="Path_5375" data-name="Path 5375" d="M4.626.746,3.135-.434C2.119-1.238-.226-.2-2.2,1.925a9.314,9.314,0,0,0-1.952,3c-.366,1.022-.282,1.812.237,2.223l1.489,1.183a1.389,1.389,0,0,0,.886.271c1.185,0,2.926-.991,4.45-2.632C4.887,3.845,5.639,1.55,4.626.746M4.5,2.206,3.48,1.4a2.935,2.935,0,0,0,.1-.812l.685.543A1.093,1.093,0,0,1,4.5,2.206ZM3.961,3.638,2.9,2.8a6.922,6.922,0,0,0,.409-.866l1.045.827a6.239,6.239,0,0,1-.393.882Zm-.8,1.222L2.084,4.012c.2-.257.38-.51.541-.763L3.694,4.1c-.156.249-.335.506-.537.765Zm-6.793.228A8.76,8.76,0,0,1-1.787,2.254C-.285.641,1.321-.2,2.238-.2a.85.85,0,0,1,.537.154c.66.522.095,2.5-1.773,4.512A9.491,9.491,0,0,1-1.75,6.576c-.818.385-1.477.454-1.81.191s-.36-.876-.072-1.68m4.65,1.888L-.049,6.13q.37-.284.732-.611l1.074.849q-.373.336-.738.607m-1.331.8-1.041-.823a7.7,7.7,0,0,0,.862-.508L.57,7.288a6.943,6.943,0,0,1-.882.489m-1.758.171-.675-.535A3.622,3.622,0,0,0-1.894,7.2l1.01.8a1.351,1.351,0,0,1-1.187-.047M2.141,6.007,1.066,5.155q.179-.176.352-.364c.113-.123.226-.249.335-.374l1.074.851c-.1.123-.218.249-.335.374s-.232.247-.35.364" transform="translate(4.378 0.706)" fill="#fff" stroke="#fff" stroke-width="0.4"/>
      </g>
      <g id="Group_2835" data-name="Group 2835" transform="translate(33.281 -0.001)">
        <path id="Path_5376" data-name="Path 5376" d="M0,1.335V1.36a.035.035,0,0,0,0,.014c0,.006,0,0,0,0v0c0,.014.008.027.012.039s0,0,0,0a.246.246,0,0,0,.016.033l0,0,.025.029L.068,1.5A.358.358,0,0,0,.1,1.521l0,0a.31.31,0,0,0,.035.021.275.275,0,0,0,.037.014H.179l.029.008c1.248.253,1.263,2.069,1.263,2.1V3.69a.057.057,0,0,0,0,.019c0,.008,0,0,0,.006a.261.261,0,0,0,.136.171h0l.019.006.006,0,.014,0,.01,0,.012,0,.014,0h.093l.019,0H1.8a.028.028,0,0,0,.019,0h.006A.043.043,0,0,0,1.849,3.9h0A.265.265,0,0,0,2,3.74l.006-.025v0a.172.172,0,0,1,0-.021V3.665c0-.027.014-1.845,1.261-2.1L3.3,1.562h.006l.035-.014h0a.2.2,0,0,0,.035-.023l.006,0A.342.342,0,0,0,3.418,1.5l0,0a.324.324,0,0,0,.025-.031.007.007,0,0,0,0,0l.019-.031s0,0,0-.006a.131.131,0,0,0,.012-.037V1.377l0-.016V1.29l0-.016v-.01l0-.012,0-.012,0-.01-.006-.014,0-.008a.043.043,0,0,1-.008-.012s0-.006-.006-.008a.055.055,0,0,0-.01-.012l-.006-.008-.01-.01L3.41,1.146,3.4,1.138,3.389,1.13l-.008-.006-.012-.01-.008,0A.121.121,0,0,1,3.344,1.1l-.006,0-.016-.008-.008,0L3.3,1.082l-.01,0a.026.026,0,0,0-.012,0C2.028.825,2.013-.99,2.013-1.019v-.025a.07.07,0,0,0,0-.021c0-.006,0,0,0,0a.261.261,0,0,0-.185-.189h0L1.8-1.264h-.09a.057.057,0,0,0-.019,0H1.686l-.019.006H1.66a.027.027,0,0,0-.016.006H1.635l-.014.006-.01,0-.01.006-.012.006-.008.006-.012.008-.006,0L1.547-1.2l0,0-.014.016a.249.249,0,0,0-.041.062.086.086,0,0,1-.008.021c0,.008,0,0,0,0l-.006.021v.006l0,.019v.025c0,.029-.014,1.849-1.261,2.1L.2,1.08h0l-.025.006a.289.289,0,0,0-.086.053l-.014.014a0,0,0,0,0,0,0,.089.089,0,0,0-.012.014l0,.006-.01.012,0,.008a.043.043,0,0,0-.008.012s0,.008,0,.01a.031.031,0,0,1-.006.014.035.035,0,0,1,0,.01.052.052,0,0,1,0,.014v.01a.046.046,0,0,1,0,.014v.035s0,.01,0,.014m1.75-1a2.1,2.1,0,0,0,.794.989,2.119,2.119,0,0,0-.794.991,2.1,2.1,0,0,0-.792-.991A2.087,2.087,0,0,0,1.75.334" transform="translate(0 1.264)" fill="#fff" stroke="#fff" stroke-width="0.4"/>
      </g>
      <g id="Group_2836" data-name="Group 2836" transform="translate(17.152 14.192)">
        <path id="Path_5377" data-name="Path 5377" d="M1.79,1.327V1.3l0-.014v-.01a.022.022,0,0,0,0-.014l-.006-.01,0-.012-.006-.012a.016.016,0,0,0,0-.008s-.006-.008-.008-.012L1.749,1.2l-.008-.01-.008-.008-.008-.01-.01-.008-.008-.008-.012-.01-.006,0-.014-.01-.006,0-.019-.008-.006,0L1.625,1.1l-.008,0L1.6,1.1H1.59l-.01,0C.334.842.319-.974.317-1v-.025a.063.063,0,0,0,0-.021v-.006c0-.006,0-.014-.006-.023A.271.271,0,0,0,.223-1.2L.2-1.209h0L.186-1.217l-.008,0L.157-1.233l-.01,0-.012,0L.12-1.248l-.008,0-.016,0H.085l-.019,0H.011l-.021,0H-.016l-.021.006H-.043l-.019.006-.006,0-.016.006-.008,0L-.1-1.223l-.01.006-.008.006L-.137-1.2l0,.006-.012.008-.016.016a.241.241,0,0,0-.039.062.074.074,0,0,0-.008.023v0a.2.2,0,0,1-.006.023c0,.006,0,0,0,0a.045.045,0,0,1,0,.021v.025c0,.029-.014,1.845-1.261,2.1l-.014,0h0a.1.1,0,0,0-.023.008l-.023.008-.023.012A.074.074,0,0,0-1.6,1.13a.113.113,0,0,0-.019.014l0,0-.014.014-.006,0-.01.012-.006.008s-.006.008-.008.012l-.006.01-.006.012,0,.008a.1.1,0,0,1-.006.014s0,.006,0,.01l0,.014v.01a.04.04,0,0,1,0,.014v.072a.035.035,0,0,0,0,.014v.006a.124.124,0,0,0,.012.039v0a.265.265,0,0,0,.019.033l0,0a.307.307,0,0,0,.025.029l0,.006.029.025,0,.012c.01.008.023.014.035.023h0c.012,0,.023.01.037.014l0,0,.031.008c1.246.251,1.263,2.069,1.263,2.1V3.7a.009.009,0,0,0,0,.01l0,.019v.006s0,.014.006.023a.249.249,0,0,0,.086.119l.019.012,0,0L-.1,3.9l.008,0,.012.006.01.006.012,0,.012.006h.01a.039.039,0,0,1,.016,0h.01l.019,0H.062a.073.073,0,0,0,.021,0H.089l.021,0H.116c.006,0,.012,0,.019,0l.006,0L.157,3.9l.008,0,.012-.006.01-.006L.2,3.881.21,3.873l0-.006.014-.01,0,0,.016-.014a.241.241,0,0,0,.039-.062L.3,3.754v0c0-.008,0-.014.006-.021V3.723c0-.006,0-.012,0-.019V3.68c0-.029.014-1.847,1.261-2.1A.164.164,0,0,0,1.6,1.576l.006,0a.291.291,0,0,0,.037-.016.288.288,0,0,0,.033-.021l.006,0a.358.358,0,0,0,.029-.025l0-.006a.108.108,0,0,0,.025-.029l0,0a.1.1,0,0,0,.019-.033v0a.131.131,0,0,0,.012-.037V1.387l0-.014V1.325Zm-1.75,1a2.094,2.094,0,0,0-.794-.989A2.1,2.1,0,0,0,.038.348a2.119,2.119,0,0,0,.794.991,2.078,2.078,0,0,0-.792.989" transform="translate(1.694 1.256)" fill="#fff" stroke="#fff" stroke-width="0.4"/>
      </g>
    </g>
  </g>
</svg>
