<svg xmlns="http://www.w3.org/2000/svg" xmlns:xlink="http://www.w3.org/1999/xlink" width="72.039" height="83.462" viewBox="0 0 72.039 83.462">
  <defs>
    <clipPath id="clip-path">
      <path id="Path_37" data-name="Path 37" d="M-799.246,66.118l34.215,12.506-11.562-15.81Z" transform="translate(799.246 -62.814)" fill="#db000c"/>
    </clipPath>
    <clipPath id="clip-path-2">
      <path id="Path_5347" data-name="Path 5347" d="M0,19.119H48.652V-22.8H0Z" transform="translate(0 22.8)" fill="none"/>
    </clipPath>
  </defs>
  <g id="Group_3031" data-name="Group 3031" transform="translate(-135.622 -1628.671)">
    <g id="Group_3008" data-name="Group 3008" transform="translate(135.622 1628.671)">
      <g id="Group_4" data-name="Group 4" transform="translate(27.241 67.653)">
        <path id="Path_36" data-name="Path 36" d="M-799.246,66.118l34.215,12.506-11.562-15.81Z" transform="translate(799.246 -62.814)" fill="#db000c"/>
        <g id="Group_3" data-name="Group 3" transform="translate(0 0)" clip-path="url(#clip-path)">
          <circle id="Ellipse_1" data-name="Ellipse 1" cx="36.019" cy="36.019" r="36.019" transform="translate(-25.582 -65.165)" fill="#bb0010"/>
        </g>
      </g>
      <circle id="Ellipse_2" data-name="Ellipse 2" cx="36.019" cy="36.019" r="36.019" fill="#db000c"/>
    </g>
    <g id="Group_2821" data-name="Group 2821" transform="translate(147.472 1665.292)">
      <g id="Group_2783" data-name="Group 2783" transform="translate(0 -22.8)" clip-path="url(#clip-path-2)">
        <g id="Group_2781" data-name="Group 2781" transform="translate(0 -0.001)">
          <path id="Path_5345" data-name="Path 5345" d="M2.895,9.248a1,1,0,0,0,1.388-.186l.938-1.18c1.164,2.068,3.561,3.993,5.712,5.418l.561,4.464c0,.006,0,.011,0,.017a.191.191,0,0,0,.007.018l1.532,12.2a1.033,1.033,0,0,0,.386.682,1.024,1.024,0,0,0,.748.206l30.156-3.9a1.016,1.016,0,0,0,.848-.752,1.039,1.039,0,0,0,.011-.151,1.105,1.105,0,0,0,.018-.246l0,0h0l-.1-.761L42.887,7.5a1.031,1.031,0,0,0-.384-.682.986.986,0,0,0-.75-.206L32.94,7.746,27.14.291A5.656,5.656,0,0,0,23.953-1.7L14.514-3.827l.894-1.125a1.046,1.046,0,0,0,.215-.778,1.041,1.041,0,0,0-.406-.695L9.284-10.83a1,1,0,0,0-1.388.186L-3.228,3.372a1.024,1.024,0,0,0-.215.776,1.027,1.027,0,0,0,.4.695Zm21.614,7.957a68.266,68.266,0,0,0-4.4-5.733L35.051,9.544a7.119,7.119,0,0,0,6.714,5.266l.533,4.231a7.032,7.032,0,0,0-3.716,2.522,7.189,7.189,0,0,0-1.476,4.282l-16.24,2.1a7.106,7.106,0,0,0-6.711-5.26l-.531-4.227a7.09,7.09,0,0,0,1.846-.826c.607.844,1.28,1.8,1.826,2.579.4.579.741,1.057.925,1.311A3.561,3.561,0,0,0,19.635,22.7a1.364,1.364,0,0,0,.245.1,4.126,4.126,0,0,0,1.509.29,3.765,3.765,0,0,0,3.12-5.876M19.357,9.5a1.737,1.737,0,0,1,.033-.239,1.275,1.275,0,0,1,1.162-.984,2.389,2.389,0,0,1,2.011.612l.18.173ZM42.769,22.771l.289,2.3-3.92.509a5.139,5.139,0,0,1,3.42-4.479ZM13.363,16.378l-.193-1.528a8.538,8.538,0,0,1,1.076,1.123,4.974,4.974,0,0,1-.883.4m1.05,8.364a5.1,5.1,0,0,1,4.422,3.466l-3.922.507ZM41.506,12.747a5.1,5.1,0,0,1-4.424-3.466l3.923-.507ZM23.514.3a3.617,3.617,0,0,1,2.039,1.267L30.594,8.05l-5.273.68L23.953,7.4a4.406,4.406,0,0,0-3.745-1.14A3.3,3.3,0,0,0,17.443,8.69a3.921,3.921,0,0,0,.017,2.245,4.2,4.2,0,0,0,.965,1.708,64.846,64.846,0,0,1,4.392,5.692,1.669,1.669,0,0,1-.057,2.035,1.82,1.82,0,0,1-2.184.493c-.022-.009-.051-.018-.081-.028l-.009,0a1.507,1.507,0,0,1-.625-.517c-.186-.256-.515-.724-.916-1.293-.739-1.055-1.714-2.442-2.427-3.414-.206-.294-.4-.557-.555-.757a10.394,10.394,0,0,0-2.841-2.565c-.171-.1-.355-.226-.553-.357l-.147-.1C9.159,9.728,7.1,7.664,6.649,6.082L13.1-2.044ZM8.868-8.593l4.3,3.19L11.916-3.831a.275.275,0,0,1-.02.024L3.312,7.013l-4.3-3.192Z" transform="translate(3.452 11.029)" fill="#fff"/>
        </g>
        <g id="Group_2782" data-name="Group 2782" transform="translate(28.114 22.635)">
          <path id="Path_5346" data-name="Path 5346" d="M.538,3.438a2.986,2.986,0,0,0,2.245.618,1.028,1.028,0,0,1,.257,2.039,1.008,1.008,0,0,1-1.006-.5,1,1,0,0,0-1.384-.37,1.033,1.033,0,0,0-.366,1.4A3.013,3.013,0,0,0,2.268,8.069l.153,1.21a1.013,1.013,0,1,0,2.01-.261l-.151-1.2a3.016,3.016,0,0,0,1.037-.857,3.107,3.107,0,0,0-.546-4.321A2.986,2.986,0,0,0,2.526,2.02a1,1,0,0,1-.748-.206A1.032,1.032,0,0,1,2.268-.017,1,1,0,0,1,3.309.551a1,1,0,0,0,1.355.471A1.032,1.032,0,0,0,5.129-.351,3.032,3.032,0,0,0,3.041-2L2.888-3.2a1.016,1.016,0,0,0-1.133-.888A1.025,1.025,0,0,0,.879-2.942l.153,1.2A3.034,3.034,0,0,0-.008-.883,3.08,3.08,0,0,0-.616,1.392,3.072,3.072,0,0,0,.538,3.438" transform="translate(0.642 4.1)" fill="#fff"/>
        </g>
      </g>
    </g>
  </g>
</svg>
