<svg xmlns="http://www.w3.org/2000/svg" xmlns:xlink="http://www.w3.org/1999/xlink" width="72.039" height="83.462" viewBox="0 0 72.039 83.462">
  <defs>
    <clipPath id="clip-path">
      <path id="Path_37" data-name="Path 37" d="M-799.246,66.118l34.215,12.506-11.562-15.81Z" transform="translate(799.246 -62.814)" fill="#db000c"/>
    </clipPath>
    <clipPath id="clip-path-2">
      <path id="Path_5367" data-name="Path 5367" d="M0,19.436H40.658V-24.38H0Z" transform="translate(0 24.38)" fill="none"/>
    </clipPath>
  </defs>
  <g id="Group_3032" data-name="Group 3032" transform="translate(-1005.622 -1344.904)">
    <g id="Group_3010" data-name="Group 3010" transform="translate(1005.622 1344.904)">
      <g id="Group_4" data-name="Group 4" transform="translate(27.241 67.653)">
        <path id="Path_36" data-name="Path 36" d="M-799.246,66.118l34.215,12.506-11.562-15.81Z" transform="translate(799.246 -62.814)" fill="#db000c"/>
        <g id="Group_3" data-name="Group 3" transform="translate(0 0)" clip-path="url(#clip-path)">
          <circle id="Ellipse_1" data-name="Ellipse 1" cx="36.019" cy="36.019" r="36.019" transform="translate(-25.582 -65.165)" fill="#bb0010"/>
        </g>
      </g>
      <circle id="Ellipse_2" data-name="Ellipse 2" cx="36.019" cy="36.019" r="36.019" fill="#db000c"/>
    </g>
    <g id="Group_2822" data-name="Group 2822" transform="translate(1024 1383.07)">
      <g id="Group_2810" data-name="Group 2810" transform="translate(0 -24.38)" clip-path="url(#clip-path-2)">
        <g id="Group_2793" data-name="Group 2793" transform="translate(11.841 0.001)">
          <path id="Path_5350" data-name="Path 5350" d="M.452,1.861A1,1,0,0,0,1.467.893V-1.366A1,1,0,0,0,.452-2.335a1,1,0,0,0-1.015.969V.846A.978.978,0,0,0,.452,1.861" transform="translate(0.567 2.335)" fill="#fff"/>
        </g>
        <g id="Group_2794" data-name="Group 2794" transform="translate(6.675 1.393)">
          <path id="Path_5351" data-name="Path 5351" d="M.554,1.49A1.046,1.046,0,0,0,1.473,2a1.136,1.136,0,0,0,.534-.138A.962.962,0,0,0,2.393.521L1.232-1.37a1.063,1.063,0,0,0-1.4-.368A.961.961,0,0,0-.558-.4Z" transform="translate(0.695 1.869)" fill="#fff"/>
        </g>
        <g id="Group_2795" data-name="Group 2795" transform="translate(15.883 1.346)">
          <path id="Path_5352" data-name="Path 5352" d="M.226,1.654a1.016,1.016,0,0,0,.532.138,1.111,1.111,0,0,0,.92-.507L2.839-.605a.963.963,0,0,0-.388-1.339,1.061,1.061,0,0,0-1.4.37L-.112.316A.91.91,0,0,0,.226,1.654" transform="translate(0.283 2.074)" fill="#fff"/>
        </g>
        <g id="Group_2796" data-name="Group 2796" transform="translate(8.972 6.243)">
          <path id="Path_5353" data-name="Path 5353" d="M0,1.622A3.787,3.787,0,0,1,3.905-2.035,3.778,3.778,0,0,1,7.741,1.687a3.786,3.786,0,0,1-3.9,3.657A3.78,3.78,0,0,1,0,1.622" transform="translate(0 2.035)" fill="#fff"/>
        </g>
        <g id="Group_2797" data-name="Group 2797" transform="translate(2.065 7.789)">
          <path id="Path_5354" data-name="Path 5354" d="M.432,2.171A7.814,7.814,0,0,0,5.367,7.059a5.007,5.007,0,0,0,.678.185v8.3L4.932,27.539l2.273-2.167A2.866,2.866,0,0,1,9,24.586l.775-.092.676-7.2,4.306.83,1.79,4.8L19.2,20.2a2.236,2.236,0,0,1,.872-.6l-1.452-4.06a2.228,2.228,0,0,0-1.693-1.384l-2.516-.46V7.291c.241-.093.483-.093.678-.185a7.847,7.847,0,0,0,4.984-4.935l.87-2.629a1.691,1.691,0,0,0-1.161-2.167,1.847,1.847,0,0,0-2.273,1.107l-.872,2.629a4.378,4.378,0,0,1-2.757,2.721,5.509,5.509,0,0,1-1.936.323H8.512a5.245,5.245,0,0,1-1.887-.323A4.5,4.5,0,0,1,3.866,1.111L3-1.519A1.79,1.79,0,0,0,.723-2.626,1.674,1.674,0,0,0-.44-.458Z" transform="translate(0.542 2.723)" fill="#fff"/>
        </g>
        <g id="Group_2798" data-name="Group 2798" transform="translate(0 30.597)">
          <path id="Path_5355" data-name="Path 5355" d="M14.46,2.242,11.267-2.369a1.03,1.03,0,0,0-1.112-.415l-4.547.969a1.149,1.149,0,0,0-.532.277L1.156,2.519a1.316,1.316,0,0,1-.678.323l-6.871.6a1.241,1.241,0,0,0-.676.277l-2.516,2.4a.987.987,0,0,1-.678.277l-5.951.368a1.3,1.3,0,0,0-.872.507L-18,8.883a1.017,1.017,0,0,0,.918,1.522H13.542a1.048,1.048,0,0,0,1.064-1.014V2.8a1.18,1.18,0,0,0-.146-.554" transform="translate(18.139 2.813)" fill="none" stroke="#fff" stroke-width="1.5"/>
        </g>
        <g id="Group_2799" data-name="Group 2799" transform="translate(25.957 1.525)">
          <path id="Path_5356" data-name="Path 5356" d="M3.261,6.473A7.332,7.332,0,0,1-4.09-.823a7.332,7.332,0,0,1,7.351-7.3,7.332,7.332,0,0,1,7.351,7.3,7.332,7.332,0,0,1-7.351,7.3m0-13.794a6.528,6.528,0,0,0-6.545,6.5,6.529,6.529,0,0,0,6.545,6.5,6.529,6.529,0,0,0,6.545-6.5,6.528,6.528,0,0,0-6.545-6.5" transform="translate(4.09 8.12)" fill="#fff"/>
        </g>
        <g id="Group_2800" data-name="Group 2800" transform="translate(29.9 6.347)">
          <path id="Path_5357" data-name="Path 5357" d="M1.846,1.5a.41.41,0,0,1-.228-.07l-3.76-2.575a.4.4,0,0,1-.1-.555.4.4,0,0,1,.559-.1L2.075.769a.4.4,0,0,1,.1.555.4.4,0,0,1-.331.173" transform="translate(2.316 1.877)" fill="#fff"/>
        </g>
        <g id="Group_2801" data-name="Group 2801" transform="translate(32.091 5.966)">
          <path id="Path_5358" data-name="Path 5358" d="M.179,1.666a.4.4,0,0,1-.343-.189A.4.4,0,0,1-.035.927L4.737-2.028a.4.4,0,0,1,.555.126.4.4,0,0,1-.129.552L.391,1.6a.393.393,0,0,1-.212.061" transform="translate(0.225 2.089)" fill="#fff"/>
        </g>
        <g id="Group_2802" data-name="Group 2802" transform="translate(32.905 2.671)">
          <path id="Path_5359" data-name="Path 5359" d="M.179.582a.4.4,0,0,1-.4-.4V-.329a.4.4,0,0,1,.4-.4.4.4,0,0,1,.4.4V.183a.4.4,0,0,1-.4.4" transform="translate(0.224 0.73)" fill="#fff"/>
        </g>
        <g id="Group_2803" data-name="Group 2803" transform="translate(32.905 13.661)">
          <path id="Path_5360" data-name="Path 5360" d="M.179.582a.4.4,0,0,1-.4-.4V-.329a.4.4,0,0,1,.4-.4.4.4,0,0,1,.4.4V.183a.4.4,0,0,1-.4.4" transform="translate(0.224 0.73)" fill="#fff"/>
        </g>
        <g id="Group_2804" data-name="Group 2804" transform="translate(28.808 4.356)">
          <path id="Path_5361" data-name="Path 5361" d="M.341.515A.41.41,0,0,1,.055.4L-.31.035a.4.4,0,0,1,0-.564.4.4,0,0,1,.57,0l.365.361A.4.4,0,0,1,.624.4.4.4,0,0,1,.341.515" transform="translate(0.427 0.646)" fill="#fff"/>
        </g>
        <g id="Group_2805" data-name="Group 2805" transform="translate(36.637 12.128)">
          <path id="Path_5362" data-name="Path 5362" d="M.341.515A.41.41,0,0,1,.055.4L-.31.037a.4.4,0,0,1,0-.566.408.408,0,0,1,.57,0l.365.363A.4.4,0,0,1,.624.4.4.4,0,0,1,.341.515" transform="translate(0.427 0.645)" fill="#fff"/>
        </g>
        <g id="Group_2806" data-name="Group 2806" transform="translate(27.111 8.422)">
          <path id="Path_5363" data-name="Path 5363" d="M.407.355H-.108a.4.4,0,0,1-.4-.4.4.4,0,0,1,.4-.4H.407a.4.4,0,0,1,.4.4.4.4,0,0,1-.4.4" transform="translate(0.511 0.445)" fill="#fff"/>
        </g>
        <g id="Group_2807" data-name="Group 2807" transform="translate(38.183 8.422)">
          <path id="Path_5364" data-name="Path 5364" d="M.407.355H-.108a.4.4,0,0,1-.4-.4.4.4,0,0,1,.4-.4H.407a.4.4,0,0,1,.4.4.4.4,0,0,1-.4.4" transform="translate(0.511 0.445)" fill="#fff"/>
        </g>
        <g id="Group_2808" data-name="Group 2808" transform="translate(28.808 12.127)">
          <path id="Path_5365" data-name="Path 5365" d="M.179.515A.406.406,0,0,1-.105.4a.4.4,0,0,1,0-.564L.258-.529a.406.406,0,0,1,.57,0,.4.4,0,0,1,0,.566L.464.4A.41.41,0,0,1,.179.515" transform="translate(0.224 0.646)" fill="#fff"/>
        </g>
        <g id="Group_2809" data-name="Group 2809" transform="translate(36.637 4.356)">
          <path id="Path_5366" data-name="Path 5366" d="M.179.515A.406.406,0,0,1-.105.4a.4.4,0,0,1,0-.564L.258-.529a.406.406,0,0,1,.57,0,.4.4,0,0,1,0,.566L.464.4A.41.41,0,0,1,.179.515" transform="translate(0.224 0.646)" fill="#fff"/>
        </g>
      </g>
    </g>
  </g>
</svg>
