<svg xmlns="http://www.w3.org/2000/svg" xmlns:xlink="http://www.w3.org/1999/xlink" width="72.039" height="83.462" viewBox="0 0 72.039 83.462">
  <defs>
    <clipPath id="clip-path">
      <path id="Path_37" data-name="Path 37" d="M-799.246,66.118l34.215,12.506-11.562-15.81Z" transform="translate(799.246 -62.814)" fill="#db000c"/>
    </clipPath>
    <clipPath id="clip-path-2">
      <path id="Path_5496" data-name="Path 5496" d="M0,23.83H43.1V-20.15H0Z" transform="translate(0 20.15)" fill="none"/>
    </clipPath>
  </defs>
  <g id="Group_3042" data-name="Group 3042" transform="translate(-1019 -1209.727)">
    <g id="Group_3021" data-name="Group 3021" transform="translate(1019 1209.727)">
      <g id="Group_4" data-name="Group 4" transform="translate(27.241 67.653)">
        <path id="Path_36" data-name="Path 36" d="M-799.246,66.118l34.215,12.506-11.562-15.81Z" transform="translate(799.246 -62.814)" fill="#db000c"/>
        <g id="Group_3" data-name="Group 3" transform="translate(0 0)" clip-path="url(#clip-path)">
          <circle id="Ellipse_1" data-name="Ellipse 1" cx="36.019" cy="36.019" r="36.019" transform="translate(-25.582 -65.165)" fill="#bb0010"/>
        </g>
      </g>
      <circle id="Ellipse_2" data-name="Ellipse 2" cx="36.019" cy="36.019" r="36.019" fill="#db000c"/>
    </g>
    <g id="Group_2951" data-name="Group 2951" transform="translate(1033.469 1223.634)" clip-path="url(#clip-path-2)">
      <g id="Group_2945" data-name="Group 2945" transform="translate(15.444 4.73)">
        <path id="Path_5490" data-name="Path 5490" d="M1.436,6.355A5.379,5.379,0,0,0,4.819,7.725h.1A5.179,5.179,0,0,0,8.35,6.4c1.764-1.609,2.7-4.352,2.7-8.183a.713.713,0,0,0-.489-.661A16.256,16.256,0,0,1,5.408-5.231a.833.833,0,0,0-.932,0,17.034,17.034,0,0,1-5.2,2.789.712.712,0,0,0-.491.661C-1.262,2-.378,4.794,1.436,6.355M4.869-3.812A16.06,16.06,0,0,0,9.527-1.306c-.05,3.121-.834,5.391-2.159,6.62a3.647,3.647,0,0,1-2.4.993h-.1a3.734,3.734,0,0,1-2.453-.993C1.043,4.085.307,1.815.259-1.306a16.533,16.533,0,0,0,4.61-2.506" transform="translate(1.214 5.373)" fill="#fff"/>
      </g>
      <g id="Group_2946" data-name="Group 2946" transform="translate(0 0.001)">
        <path id="Path_5491" data-name="Path 5491" d="M20.962,0H-5.319A4.693,4.693,0,0,0-9.684,4.588V34.8h-7.305a.741.741,0,0,0-.736.709V39.77a4.729,4.729,0,0,0,4.756,4.21h25.5a4.84,4.84,0,0,0,3.481-1.467,4.552,4.552,0,0,0,1.325-3.169V9.174H24.64a.74.74,0,0,0,.736-.709V4.588A4.778,4.778,0,0,0,20.962,0M-12.969,42.561a3.262,3.262,0,0,1-3.285-2.933v-3.4H7.773v3.169a4.082,4.082,0,0,0,.343,1.7l.295.567a.159.159,0,0,0,.048.094,4.043,4.043,0,0,0,.345.474l.048.048c.05.094.146.142.2.236H-12.969Zm28.782-3.169a3.33,3.33,0,0,1-.882,2.176,3.417,3.417,0,0,1-3.383.851,3.158,3.158,0,0,1-2.06-1.844,3.432,3.432,0,0,1-.244-1.183V35.514a.741.741,0,0,0-.736-.709H-8.213V4.588a3.24,3.24,0,0,1,3.04-3.169H17.138l-.05.048c-.048.094-.146.142-.2.236a.047.047,0,0,1-.048.048c-.05.094-.146.188-.2.284a4.5,4.5,0,0,0-.784,2.08V39.392ZM23.854,7.755h-6.57V4.3a3.972,3.972,0,0,1,.295-1.089,3.153,3.153,0,0,1,2.108-1.7,2.632,2.632,0,0,1,.587-.094h.541a3.238,3.238,0,0,1,3.038,3.169Z" transform="translate(17.725)" fill="#fff"/>
      </g>
      <g id="Group_2947" data-name="Group 2947" transform="translate(18.774 9.797)">
        <path id="Path_5492" data-name="Path 5492" d="M1.119,2.737a.71.71,0,0,0,.589-.284L4.4-1.187a.716.716,0,0,0-.146-.993.779.779,0,0,0-1.03.142L1.119.8.383-.194A.732.732,0,0,0-.647-.336.676.676,0,0,0-.793.657L.58,2.5a.642.642,0,0,0,.539.236" transform="translate(0.946 2.315)" fill="#fff"/>
      </g>
      <g id="Group_2948" data-name="Group 2948" transform="translate(13.485 28.658)">
        <path id="Path_5493" data-name="Path 5493" d="M8.289,0H-6.273a.741.741,0,0,0-.736.709.741.741,0,0,0,.736.709H8.289A.741.741,0,0,0,9.025.709.741.741,0,0,0,8.289,0" transform="translate(7.009 0)" fill="#fff"/>
      </g>
      <g id="Group_2949" data-name="Group 2949" transform="translate(13.485 24.922)">
        <path id="Path_5494" data-name="Path 5494" d="M8.289,0H-6.273a.741.741,0,0,0-.736.709.741.741,0,0,0,.736.709H8.289A.741.741,0,0,0,9.025.709.741.741,0,0,0,8.289,0" transform="translate(7.009 0)" fill="#fff"/>
      </g>
      <g id="Group_2950" data-name="Group 2950" transform="translate(13.485 21.234)">
        <path id="Path_5495" data-name="Path 5495" d="M8.289,0H-6.273a.741.741,0,0,0-.736.709.741.741,0,0,0,.736.709H8.289A.741.741,0,0,0,9.025.709.741.741,0,0,0,8.289,0" transform="translate(7.009 0)" fill="#fff"/>
      </g>
    </g>
  </g>
</svg>
