<svg xmlns="http://www.w3.org/2000/svg" xmlns:xlink="http://www.w3.org/1999/xlink" width="72.039" height="83.462" viewBox="0 0 72.039 83.462">
  <defs>
    <clipPath id="clip-path">
      <path id="Path_37" data-name="Path 37" d="M-799.246,66.118l34.215,12.506-11.562-15.81Z" transform="translate(799.246 -62.814)" fill="#db000c"/>
    </clipPath>
    <clipPath id="clip-path-2">
      <path id="Path_5437" data-name="Path 5437" d="M0,25.737H41.978V-26.37H0Z" transform="translate(0 26.37)" fill="none"/>
    </clipPath>
  </defs>
  <g id="Group_3037" data-name="Group 3037" transform="translate(-135.897 -668.488)">
    <g id="Group_3012" data-name="Group 3012" transform="translate(135.897 668.488)">
      <g id="Group_4" data-name="Group 4" transform="translate(27.241 67.653)">
        <path id="Path_36" data-name="Path 36" d="M-799.246,66.118l34.215,12.506-11.562-15.81Z" transform="translate(799.246 -62.814)" fill="#db000c"/>
        <g id="Group_3" data-name="Group 3" transform="translate(0 0)" clip-path="url(#clip-path)">
          <circle id="Ellipse_1" data-name="Ellipse 1" cx="36.019" cy="36.019" r="36.019" transform="translate(-25.582 -65.165)" fill="#bb0010"/>
        </g>
      </g>
      <circle id="Ellipse_2" data-name="Ellipse 2" cx="36.019" cy="36.019" r="36.019" fill="#db000c"/>
    </g>
    <g id="Group_2895" data-name="Group 2895" transform="translate(150.929 677.635)" clip-path="url(#clip-path-2)">
      <g id="Group_2893" data-name="Group 2893" transform="translate(17.194 32.513)">
        <path id="Path_5435" data-name="Path 5435" d="M2.6,2.636H1.789V.613H4.261a.657.657,0,0,0,.662-.652.656.656,0,0,0-.662-.65H1.789V-2.049A.657.657,0,0,0,1.127-2.7a.657.657,0,0,0-.662.652V-.689H-.353A2.3,2.3,0,0,0-2.669,1.589V1.66A2.3,2.3,0,0,0-.353,3.938H.465V5.891H-2.007a.656.656,0,0,0-.662.65.657.657,0,0,0,.662.652H.465V8.552a.656.656,0,0,0,.662.65.656.656,0,0,0,.662-.65V7.193H2.6a2.279,2.279,0,1,0,0-4.557m-2.958,0a.985.985,0,0,1-.992-.976V1.589A.984.984,0,0,1-.353.613H.465V2.636ZM2.6,5.891H1.789V3.938H2.6a.976.976,0,1,1,0,1.952" transform="translate(2.669 2.701)" fill="#fff"/>
      </g>
      <g id="Group_2894" data-name="Group 2894" transform="translate(0 -0.001)">
        <path id="Path_5436" data-name="Path 5436" d="M20.426,24.807A59,59,0,0,0,8.233,21.458a11.555,11.555,0,0,0,3.689-8.447A11.754,11.754,0,0,0,.951,1.392V.06H5.093a8.659,8.659,0,0,0,8.72-8.574.984.984,0,0,0-.992-.976H8.2A8.758,8.758,0,0,0,.951-5.676V-16.163a5.057,5.057,0,0,0,1.887-2.749,4.993,4.993,0,0,0-.52-3.877L1.064-24.93a1,1,0,0,0-.6-.454,1,1,0,0,0-.753.1,5.093,5.093,0,0,0-2.423,3.1,5.01,5.01,0,0,0,.52,3.877l1.162,1.978v4.762a7.36,7.36,0,0,0-5.859-2.893h-3.788a.985.985,0,0,0-.994.976A7.279,7.279,0,0,0-4.345-6.275h3.31V1.4A11.752,11.752,0,0,0-11.8,13.011a11.535,11.535,0,0,0,3.685,8.447A59.1,59.1,0,0,0-20.3,24.807a.972.972,0,0,0-.553,1.271,1,1,0,0,0,1.292.541A54.478,54.478,0,0,1,.06,22.74a54.48,54.48,0,0,1,19.627,3.879,1.006,1.006,0,0,0,.37.071.993.993,0,0,0,.921-.613.971.971,0,0,0-.551-1.271M8.2-7.538h3.555A6.707,6.707,0,0,1,5.093-1.894H1.538A6.71,6.71,0,0,1,8.2-7.538m-12.544-.69A5.329,5.329,0,0,1-9.6-12.507h2.7a5.333,5.333,0,0,1,5.254,4.28ZM-.8-21.678a3.132,3.132,0,0,1,.715-1.3L.6-21.812a3.083,3.083,0,0,1,.32,2.395,3.106,3.106,0,0,1-.713,1.3l-.682-1.162h0A3.092,3.092,0,0,1-.8-21.678M-5.41,21.094a9.649,9.649,0,0,1-4.406-8.084A9.8,9.8,0,0,1,.06,3.3a9.8,9.8,0,0,1,9.876,9.71,9.665,9.665,0,0,1-4.355,8.052c-.014.01-.026.022-.04.034A50.092,50.092,0,0,0,.06,20.788a50.434,50.434,0,0,0-5.47.306" transform="translate(20.929 25.418)" fill="#fff"/>
      </g>
    </g>
  </g>
</svg>
