<svg xmlns="http://www.w3.org/2000/svg" xmlns:xlink="http://www.w3.org/1999/xlink" width="72.039" height="83.462" viewBox="0 0 72.039 83.462">
  <defs>
    <clipPath id="clip-path">
      <path id="Path_37" data-name="Path 37" d="M-799.246,66.118l34.215,12.506-11.562-15.81Z" transform="translate(799.246 -62.814)" fill="#db000c"/>
    </clipPath>
    <clipPath id="clip-path-2">
      <path id="Path_5457" data-name="Path 5457" d="M0,19.727H43.26v-41.5H0Z" transform="translate(0 21.774)" fill="none"/>
    </clipPath>
  </defs>
  <g id="Group_3041" data-name="Group 3041" transform="translate(-135.897 -844.58)">
    <g id="Group_3012" data-name="Group 3012" transform="translate(135.897 844.58)">
      <g id="Group_4" data-name="Group 4" transform="translate(27.241 67.653)">
        <path id="Path_36" data-name="Path 36" d="M-799.246,66.118l34.215,12.506-11.562-15.81Z" transform="translate(799.246 -62.814)" fill="#db000c"/>
        <g id="Group_3" data-name="Group 3" transform="translate(0 0)" clip-path="url(#clip-path)">
          <circle id="Ellipse_1" data-name="Ellipse 1" cx="36.019" cy="36.019" r="36.019" transform="translate(-25.582 -65.165)" fill="#bb0010"/>
        </g>
      </g>
      <circle id="Ellipse_2" data-name="Ellipse 2" cx="36.019" cy="36.019" r="36.019" fill="#db000c"/>
    </g>
    <g id="Group_2913" data-name="Group 2913" transform="translate(149.709 860.803)" clip-path="url(#clip-path-2)">
      <g id="Group_2910" data-name="Group 2910" transform="translate(10.12 5.929)">
        <path id="Path_5454" data-name="Path 5454" d="M.015,1.974A5.393,5.393,0,0,1,6.282-2.1,5.137,5.137,0,0,1,7.923,7.554,2.182,2.182,0,0,0,6.859,9.5v1.658a1.514,1.514,0,0,1-1.544,1.483A1.516,1.516,0,0,1,3.77,11.161V9.5A5.09,5.09,0,0,1,6.43,4.959,2.2,2.2,0,0,0,5.748.823a2.319,2.319,0,0,0-2.7,1.74,1.544,1.544,0,0,1-1.82,1.159A1.487,1.487,0,0,1,.015,1.974" transform="translate(0.016 2.179)" fill="#fff"/>
      </g>
      <g id="Group_2911" data-name="Group 2911" transform="translate(13.906 22.232)">
        <path id="Path_5455" data-name="Path 5455" d="M1.469.7A1.515,1.515,0,0,1-.077,2.188,1.514,1.514,0,0,1-1.621.7,1.514,1.514,0,0,1-.077-.778,1.515,1.515,0,0,1,1.469.7" transform="translate(1.621 0.778)" fill="#fff"/>
      </g>
      <g id="Group_2912" data-name="Group 2912" transform="translate(-0.001 0.001)">
        <path id="Path_5456" data-name="Path 5456" d="M7.345,14.09a15.785,15.785,0,0,0,9.772-3.353L19.6,13.123l-.991.955a1.44,1.44,0,0,0,0,2.095l8.874,8.512a4.623,4.623,0,0,0,6.351,0,4.19,4.19,0,0,0,0-6.093l-8.88-8.52a1.59,1.59,0,0,0-2.186,0l-.989.951L19.3,8.642A14.387,14.387,0,0,0,22.8-.731c0-8.173-6.932-14.821-15.452-14.821S-8.107-8.9-8.107-.731-1.175,14.09,7.345,14.09m16.525-.873,7.786,7.469a1.308,1.308,0,0,1,0,1.9,1.478,1.478,0,0,1-1.982,0l-7.782-7.466ZM7.345-12.588A12.13,12.13,0,0,1,19.7-.731,12.13,12.13,0,0,1,7.345,11.126,12.13,12.13,0,0,1-5.016-.731,12.13,12.13,0,0,1,7.345-12.588" transform="translate(8.107 15.552)" fill="#fff"/>
      </g>
    </g>
  </g>
</svg>
