<svg xmlns="http://www.w3.org/2000/svg" xmlns:xlink="http://www.w3.org/1999/xlink" width="72.039" height="83.462" viewBox="0 0 72.039 83.462">
  <defs>
    <clipPath id="clip-path">
      <path id="Path_37" data-name="Path 37" d="M-799.246,66.118l34.215,12.506-11.562-15.81Z" transform="translate(799.246 -62.814)" fill="#db000c"/>
    </clipPath>
    <clipPath id="clip-path-2">
      <path id="Path_5486" data-name="Path 5486" d="M0,18.283H41.569V-24.655H0Z" transform="translate(0 24.655)" fill="none"/>
    </clipPath>
  </defs>
  <g id="Group_3040" data-name="Group 3040" transform="translate(-135.897 -380.17)">
    <g id="Group_3010" data-name="Group 3010" transform="translate(135.897 380.17)">
      <g id="Group_4" data-name="Group 4" transform="translate(27.241 67.653)">
        <path id="Path_36" data-name="Path 36" d="M-799.246,66.118l34.215,12.506-11.562-15.81Z" transform="translate(799.246 -62.814)" fill="#db000c"/>
        <g id="Group_3" data-name="Group 3" transform="translate(0 0)" clip-path="url(#clip-path)">
          <circle id="Ellipse_1" data-name="Ellipse 1" cx="36.019" cy="36.019" r="36.019" transform="translate(-25.582 -65.165)" fill="#bb0010"/>
        </g>
      </g>
      <circle id="Ellipse_2" data-name="Ellipse 2" cx="36.019" cy="36.019" r="36.019" fill="#db000c"/>
    </g>
    <g id="Group_2939" data-name="Group 2939" transform="translate(149.4 395.717)" clip-path="url(#clip-path-2)">
      <g id="Group_2938" data-name="Group 2938" transform="translate(-0.001 -0.001)">
        <path id="Path_5485" data-name="Path 5485" d="M15.224,11.384a.848.848,0,1,1-1.611-.521A89.08,89.08,0,0,1,16.6,1.387c.583-1.545-1.742.016-2.13.644a72.474,72.474,0,0,0-3.3,6.487.854.854,0,0,1-.636.509,11.158,11.158,0,0,0-6.546,5.789c-2,3.866-.432,8.941.247,10.757l6.189-1.733c-1.142-3.582-.987-4.1,1.1-6.586,3.777-4.5,7.772-9.075,7.828-15.592A27.723,27.723,0,0,0,16.936-8.9c-.519-1.28-1.08-.162-1.007.791l.543,7.076C18.848-1.091,18.836.292,18.153,2.1a87.684,87.684,0,0,0-2.929,9.288M-3.473-1.631l1.806-.2C-1.462-.575-.857.1.329.1c.78,0,1.8-.347,1.8-1.386C2.124-2.369.539-2.568-.2-2.773c-1.465-.4-2.922-1.109-2.922-3.037a2.747,2.747,0,0,1,2.6-2.766v-1.13h1.56v1.135A2.9,2.9,0,0,1,3.712-5.548l-1.856.071A1.468,1.468,0,0,0,.186-6.941c-.564,0-1.546.185-1.546.994,0,.871,1.4,1.141,1.973,1.292,1.78.46,3.368,1.041,3.368,3.356A3,3,0,0,1,1.034,1.774V2.838H-.526V1.76c-1.665-.247-2.72-1.3-2.947-3.391m2.79-12.7a.94.94,0,1,1,1.874,0v2.362a.94.94,0,1,1-1.874,0ZM-8.8-7.993c-1.068-.677-.131-2.461.937-1.783L-6-8.6c1.068.677.131,2.461-.935,1.783Zm.937,10.9c-1.068.679-2-1.106-.937-1.783L-6.939-.056c1.066-.677,2,1.106.935,1.783ZM1.191,7.467a.94.94,0,1,1-1.874,0V5.105a.94.94,0,1,1,1.874,0ZM9.308,1.124c1.068.677.131,2.463-.935,1.783L6.511,1.727c-1.068-.677-.131-2.461.937-1.783ZM-14.716,11.384a.848.848,0,1,0,1.611-.521A89.079,89.079,0,0,0-16.1,1.387c-.583-1.545,1.742.016,2.13.644a72.475,72.475,0,0,1,3.3,6.487.854.854,0,0,0,.636.509,11.158,11.158,0,0,1,6.546,5.789c2,3.866.434,8.941-.247,10.757l-6.189-1.733c1.142-3.582.989-4.1-1.1-6.586-3.777-4.5-7.772-9.075-7.83-15.592A27.723,27.723,0,0,1-16.428-8.9c.519-1.28,1.08-.162,1.007.791l-.542,7.076C-18.341-1.091-18.328.292-17.646,2.1a86.819,86.819,0,0,1,2.929,9.288M8.373-9.776c1.066-.677,2,1.106.935,1.783L7.448-6.812c-1.068.677-2-1.106-.937-1.783ZM-14.305-.622l.561-7.33c.259-3.384-3-4.706-4.22-1.7A29.646,29.646,0,0,0-20.53,1.683c.063,7.158,4.129,11.888,8.272,16.823,1.916,2.281,1.688,2.405.451,5.583a.949.949,0,0,0,.556,1.285l7.745,2.168a.815.815,0,0,0,1.012-.477c.009-.021,3.393-7.52.467-13.166a13.18,13.18,0,0,0-7.3-6.576A69.31,69.31,0,0,0-12.573,1a4.3,4.3,0,0,0-1.733-1.62m29.118,0-.561-7.33c-.259-3.384,3-4.706,4.22-1.7A29.582,29.582,0,0,1,21.037,1.683c-.063,7.158-4.129,11.888-8.271,16.823-1.916,2.281-1.689,2.405-.453,5.583a.947.947,0,0,1-.556,1.285L4.016,27.543A.814.814,0,0,1,3,27.066c-.01-.021-3.394-7.52-.468-13.166a13.19,13.19,0,0,1,7.3-6.576A69.763,69.763,0,0,1,13.08,1a4.3,4.3,0,0,1,1.733-1.62" transform="translate(20.53 15.351)" fill="#fff"/>
      </g>
    </g>
  </g>
</svg>
