<svg xmlns="http://www.w3.org/2000/svg" xmlns:xlink="http://www.w3.org/1999/xlink" width="72.039" height="83.462" viewBox="0 0 72.039 83.462">
  <defs>
    <clipPath id="clip-path">
      <path id="Path_37" data-name="Path 37" d="M-799.246,66.118l34.215,12.506-11.562-15.81Z" transform="translate(799.246 -62.814)" fill="#db000c"/>
    </clipPath>
    <clipPath id="clip-path-2">
      <path id="Path_5489" data-name="Path 5489" d="M0,24.226H43.427V-23.932H0Z" transform="translate(0 23.932)" fill="none"/>
    </clipPath>
  </defs>
  <g id="Group_3043" data-name="Group 3043" transform="translate(-1019 -2545.137)">
    <g id="Group_3022" data-name="Group 3022" transform="translate(1019 2545.137)">
      <g id="Group_4" data-name="Group 4" transform="translate(27.241 67.653)">
        <path id="Path_36" data-name="Path 36" d="M-799.246,66.118l34.215,12.506-11.562-15.81Z" transform="translate(799.246 -62.814)" fill="#db000c"/>
        <g id="Group_3" data-name="Group 3" transform="translate(0 0)" clip-path="url(#clip-path)">
          <circle id="Ellipse_1" data-name="Ellipse 1" cx="36.019" cy="36.019" r="36.019" transform="translate(-25.582 -65.165)" fill="#bb0010"/>
        </g>
      </g>
      <circle id="Ellipse_2" data-name="Ellipse 2" cx="36.019" cy="36.019" r="36.019" fill="#db000c"/>
    </g>
    <g id="Group_2943" data-name="Group 2943" transform="translate(1032.103 2558.834)" clip-path="url(#clip-path-2)">
      <g id="Group_2941" data-name="Group 2941" transform="translate(2.576 0)">
        <path id="Path_5487" data-name="Path 5487" d="M3.337,10.509H20.074a10.834,10.834,0,0,0,6.288,1.972A11.366,11.366,0,0,0,37.554,1.05,11.366,11.366,0,0,0,26.362-10.382,11.209,11.209,0,0,0,20.074-8.41H3.337A6.707,6.707,0,0,0-3.3-1.631V3.73a6.772,6.772,0,0,0,6.634,6.779M26.362-6.943A7.948,7.948,0,0,1,34.236,1.1a7.875,7.875,0,1,1-15.746,0,7.98,7.98,0,0,1,7.872-8.043M3.734-.164a1.153,1.153,0,0,1,1.634.151L6.7,1.607,9.676-1.985a1.022,1.022,0,0,1,.791-.4,1.051,1.051,0,0,1,.843.252,1.069,1.069,0,0,1,.4.811,1.116,1.116,0,0,1-.248.859L7.6,4.237a1.231,1.231,0,0,1-.891.4,1.156,1.156,0,0,1-.891-.4L3.585,1.555A1.1,1.1,0,0,1,3.337.7a1.018,1.018,0,0,1,.4-.859" transform="translate(3.297 10.382)" fill="#fff"/>
      </g>
      <g id="Group_2942" data-name="Group 2942" transform="translate(-0.001 25.294)">
        <path id="Path_5488" data-name="Path 5488" d="M17.213.992H.477A10.834,10.834,0,0,0-5.812-.98,11.366,11.366,0,0,0-17,10.452,11.366,11.366,0,0,0-5.812,21.884,11.209,11.209,0,0,0,.477,19.911H17.213a6.707,6.707,0,0,0,6.634-6.779V7.719A6.7,6.7,0,0,0,17.213.992M-5.763,18.445A7.947,7.947,0,0,1-13.635,10.4,7.947,7.947,0,0,1-5.763,2.358,7.948,7.948,0,0,1,2.111,10.4a7.98,7.98,0,0,1-7.874,8.043m22.034-6.121a1.208,1.208,0,0,1,0,1.67,1.185,1.185,0,0,1-.841.354,1.153,1.153,0,0,1-.841-.354L12.707,12.07l-1.881,1.924a1.189,1.189,0,0,1-.843.354,1.079,1.079,0,0,1-.841-.354,1.212,1.212,0,0,1,0-1.67L11.023,10.4,9.192,8.48a1.208,1.208,0,0,1,0-1.67,1.149,1.149,0,0,1,1.634,0l1.881,1.922L14.589,6.81a1.149,1.149,0,0,1,1.634,0,1.212,1.212,0,0,1,0,1.67L14.341,10.4Z" transform="translate(17.004 0.98)" fill="#fff"/>
      </g>
    </g>
  </g>
</svg>
