<svg xmlns="http://www.w3.org/2000/svg" xmlns:xlink="http://www.w3.org/1999/xlink" width="72.039" height="83.462" viewBox="0 0 72.039 83.462">
  <defs>
    <clipPath id="clip-path">
      <path id="Path_37" data-name="Path 37" d="M-799.246,66.118l34.215,12.506-11.562-15.81Z" transform="translate(799.246 -62.814)" fill="#db000c"/>
    </clipPath>
    <clipPath id="clip-path-2">
      <path id="Path_5449" data-name="Path 5449" d="M0,22.357H44.514V-23.379H0Z" transform="translate(0 23.379)" fill="none"/>
    </clipPath>
  </defs>
  <g id="Group_3044" data-name="Group 3044" transform="translate(-135.897 -350.17)">
    <g id="Group_3036" data-name="Group 3036">
      <g id="Group_3010" data-name="Group 3010" transform="translate(135.897 350.17)">
        <g id="Group_4" data-name="Group 4" transform="translate(27.241 67.653)">
          <path id="Path_36" data-name="Path 36" d="M-799.246,66.118l34.215,12.506-11.562-15.81Z" transform="translate(799.246 -62.814)" fill="#db000c"/>
          <g id="Group_3" data-name="Group 3" transform="translate(0 0)" clip-path="url(#clip-path)">
            <circle id="Ellipse_1" data-name="Ellipse 1" cx="36.019" cy="36.019" r="36.019" transform="translate(-25.582 -65.165)" fill="#bb0010"/>
          </g>
        </g>
        <circle id="Ellipse_2" data-name="Ellipse 2" cx="36.019" cy="36.019" r="36.019" fill="#db000c"/>
      </g>
    </g>
    <g id="Group_2903" data-name="Group 2903" transform="translate(147 361.575)" clip-path="url(#clip-path-2)">
      <g id="Group_2902" data-name="Group 2902" transform="translate(0 0)">
        <path id="Path_5448" data-name="Path 5448" d="M.429,14.794a.905.905,0,0,1,0-1.81h9.3a.9.9,0,0,1,.89.906v1.027c1.352,0,2.868-.074,4.2.014a13.381,13.381,0,0,1-.28-5.2,14.274,14.274,0,0,1,3.782-7.088,22.089,22.089,0,0,0,4.353-6.8.89.89,0,0,1,1.622.736A23.677,23.677,0,0,1,19.632,3.86,12.56,12.56,0,0,0,16.3,10.044c-.376,2.154.2,3.363.421,5.235a15.6,15.6,0,0,1,4.711,2.234h6.354A3.235,3.235,0,0,1,31.1,19.9c1.608-.757,4.177-1.96,6.274-2.929a11.454,11.454,0,0,0,.2-5.485A13.192,13.192,0,0,0,35.3,5.734c-.477-.636-.939-1.142-1.412-1.663a23.414,23.414,0,0,1-4.768-7.493.89.89,0,0,1,1.62-.736,21.867,21.867,0,0,0,4.449,7.006c.516.571,1.023,1.125,1.522,1.79a15.054,15.054,0,0,1,2.618,6.554,16.318,16.318,0,0,1,.086,4.842c4.413-1.992,6.393,2.989,2.751,5.126-5.137,3.015-10.576,5.607-15.717,8.6C23.57,31.44,16.684,28.5,13.79,27.219H10.623v.99a.9.9,0,0,1-.89.9h-7.6a.9.9,0,0,1,0-1.808h6.71V14.794Zm22.384-4.2,1.868-.188a1.922,1.922,0,0,0,2.064,1.845c.81,0,1.858-.333,1.858-1.326,0-1.035-1.641-1.227-2.408-1.422-1.516-.385-3.024-1.06-3.024-2.9A2.373,2.373,0,0,1,24.3,4.5V2.546h1.823V3.919c.166-.016.333-.023.5-.023.2,0,.4.01.591.027V2.546h1.823V4.5a2.736,2.736,0,0,1,1.211,2.346l-1.923.068a1.481,1.481,0,0,0-1.725-1.4c-.585,0-1.6.176-1.6.951C25,7.3,26.446,7.556,27.04,7.7c1.841.442,3.484,1,3.484,3.21A2.628,2.628,0,0,1,29.036,13.4v1.847H27.213V13.873q-.244.018-.487.018a5.977,5.977,0,0,1-.6-.027v1.379H24.3V13.3a3.467,3.467,0,0,1-1.489-2.708M24.521-9.128a.89.89,0,0,1-1.6.784A12.356,12.356,0,0,0,20.2-12.537c-1.06-1.129-.321-2.328.91-2.751a2.927,2.927,0,0,1,2.627.266c.765.7,1.056,1.907,1.624.734a1.6,1.6,0,0,1,2.974-.037c.708,1.3.718.145,1.634-.7a2.926,2.926,0,0,1,2.627-.266c1.229.423,1.97,1.62.91,2.751a12.327,12.327,0,0,0-2.725,4.194.891.891,0,0,1-1.6-.784c1.467-3.079,1.825-3.433,2.592-4.2.52-.518-.45-.669-1.052.176-1.072,1.5-3.112,1.974-3.852-.1-.683,2.1-2.786,1.438-3.87.072-.741-.931-1.5-.585-1.064-.151.767.765,1.123,1.119,2.59,4.2m-2.584,3.65a.9.9,0,0,1,0-1.808h9.827a.9.9,0,0,1,0,1.808Zm-7.553,22.2h-3.76v8.682l3.347,0a.881.881,0,0,1,.362.078c2.314,1.054,8.95,4.04,11.225,2.715,5.147-3,10.591-5.591,15.729-8.606,1.813-1.064.706-2.711-1.1-1.9-2.682,1.205-9.388,4.333-9.854,4.552a3.885,3.885,0,0,1-2.678.869H20.673c-1.011,0-1.011.56-1.011.56a.889.889,0,1,1-1.778,0,2.471,2.471,0,0,1,2.79-2.369h6.978c2.592,0,1.978-1.986.131-1.986l-6.618,0a.872.872,0,0,1-.5-.16c-1.6-1.113-4.186-2.434-6.278-2.434M4.33,21.751H6.656a.9.9,0,0,1,.89.9v2.033a.9.9,0,0,1-.89.9H4.33a.9.9,0,0,1-.89-.9V22.654a.9.9,0,0,1,.89-.9" transform="translate(0.448 15.47)" fill="#fff"/>
      </g>
    </g>
  </g>
</svg>
