<svg xmlns="http://www.w3.org/2000/svg" xmlns:xlink="http://www.w3.org/1999/xlink" width="72.039" height="83.462" viewBox="0 0 72.039 83.462">
  <defs>
    <clipPath id="clip-path">
      <path id="Path_37" data-name="Path 37" d="M-799.246,66.118l34.215,12.506-11.562-15.81Z" transform="translate(799.246 -62.814)" fill="#db000c"/>
    </clipPath>
    <clipPath id="clip-path-2">
      <path id="Path_5414" data-name="Path 5414" d="M0,24.9H45.765V-21.331H0Z" transform="translate(0 21.331)" fill="none"/>
    </clipPath>
  </defs>
  <g id="Group_3032" data-name="Group 3032" transform="translate(-135.897 -687.892)">
    <g id="Group_3012" data-name="Group 3012" transform="translate(135.897 687.892)">
      <g id="Group_4" data-name="Group 4" transform="translate(27.241 67.653)">
        <path id="Path_36" data-name="Path 36" d="M-799.246,66.118l34.215,12.506-11.562-15.81Z" transform="translate(799.246 -62.814)" fill="#db000c"/>
        <g id="Group_3" data-name="Group 3" transform="translate(0 0)" clip-path="url(#clip-path)">
          <circle id="Ellipse_1" data-name="Ellipse 1" cx="36.019" cy="36.019" r="36.019" transform="translate(-25.582 -65.165)" fill="#bb0010"/>
        </g>
      </g>
      <circle id="Ellipse_2" data-name="Ellipse 2" cx="36.019" cy="36.019" r="36.019" fill="#db000c"/>
    </g>
    <g id="Group_2870" data-name="Group 2870" transform="translate(149.035 722.31)">
      <g id="Group_2867" data-name="Group 2867" transform="translate(0 -21.33)" clip-path="url(#clip-path-2)">
        <g id="Group_2864" data-name="Group 2864" transform="translate(19.351 5.964)">
          <path id="Path_5411" data-name="Path 5411" d="M1.591,6.425V7.916H3.069V6.425a2.982,2.982,0,0,0,0-5.964H1.591A1.487,1.487,0,0,1,.113-1.032,1.487,1.487,0,0,1,1.591-2.523H3.069A1.486,1.486,0,0,1,4.545-1.032H6.023A2.972,2.972,0,0,0,3.069-4.014V-5.505H1.591v1.491A2.97,2.97,0,0,0-1.363-1.032,2.972,2.972,0,0,0,1.591,1.952H3.069a1.491,1.491,0,0,1,0,2.982H1.591A1.487,1.487,0,0,1,.113,3.443V2.7H-1.363v.745A2.97,2.97,0,0,0,1.591,6.425" transform="translate(1.363 5.505)" fill="#fff"/>
        </g>
        <g id="Group_2865" data-name="Group 2865" transform="translate(10.489 -0.001)">
          <path id="Path_5412" data-name="Path 5412" d="M6.761,13.653A12.63,12.63,0,0,0,19.315.977,12.63,12.63,0,0,0,6.761-11.7,12.63,12.63,0,0,0-5.793.977,12.63,12.63,0,0,0,6.761,13.653M-1.361.977a8.172,8.172,0,0,1,8.122-8.2,8.172,8.172,0,0,1,8.122,8.2,8.172,8.172,0,0,1-8.122,8.2A8.172,8.172,0,0,1-1.361.977M.522,8.33a9.663,9.663,0,0,0,1.9,1.281L1.855,10.99A11.176,11.176,0,0,1-.523,9.384Zm3.259,1.857a9.491,9.491,0,0,0,2.241.446v1.491a10.936,10.936,0,0,1-2.8-.561Zm3.719.444a9.383,9.383,0,0,0,2.241-.446l.563,1.378a10.843,10.843,0,0,1-2.8.559Zm3.6-1.021A9.491,9.491,0,0,0,13,8.33l1.045,1.055a11.073,11.073,0,0,1-2.375,1.6Zm2.941-2.336a9.673,9.673,0,0,0,1.27-1.916l1.365.572a11.255,11.255,0,0,1-1.591,2.4Zm1.84-3.29a9.755,9.755,0,0,0,.442-2.262H17.8a11.145,11.145,0,0,1-.555,2.832ZM16.325.232a9.755,9.755,0,0,0-.442-2.262l1.363-.57A11.145,11.145,0,0,1,17.8.232ZM15.313-3.407a9.8,9.8,0,0,0-1.27-1.916l1.045-1.053a11.2,11.2,0,0,1,1.591,2.4ZM13-6.376a9.584,9.584,0,0,0-1.9-1.281l.566-1.378a11.162,11.162,0,0,1,2.375,1.606ZM9.739-8.233A9.339,9.339,0,0,0,7.5-8.677V-10.17a10.953,10.953,0,0,1,2.806.561ZM6.022-8.677a9.491,9.491,0,0,0-2.241.446L3.218-9.609a10.936,10.936,0,0,1,2.8-.561ZM2.42-7.656a9.569,9.569,0,0,0-1.9,1.281L-.523-7.431a11.087,11.087,0,0,1,2.377-1.6ZM-.523-5.32A9.759,9.759,0,0,0-1.79-3.4l-1.365-.572a11.255,11.255,0,0,1,1.591-2.4ZM-2.36-2.03A9.755,9.755,0,0,0-2.8.232H-4.28A11.24,11.24,0,0,1-3.726-2.6ZM-2.8,1.723A9.755,9.755,0,0,0-2.36,3.985l-1.365.57A11.24,11.24,0,0,1-4.28,1.723ZM-1.79,5.362A9.823,9.823,0,0,0-.523,7.277L-1.567,8.33a11.192,11.192,0,0,1-1.588-2.4Z" transform="translate(5.793 11.698)" fill="#fff"/>
        </g>
        <g id="Group_2866" data-name="Group 2866" transform="translate(9.752 26.841)">
          <path id="Path_5413" data-name="Path 5413" d="M13.124,0H-9.03a2.228,2.228,0,0,0-2.215,2.236V17.148A2.228,2.228,0,0,0-9.03,19.385H13.124a2.228,2.228,0,0,0,2.215-2.236V2.236A2.228,2.228,0,0,0,13.124,0M-9.03,1.491H13.124a.744.744,0,0,1,.739.745V4.473H-9.769V2.236a.744.744,0,0,1,.739-.745M13.863,7.457H-9.769V5.966H13.863Zm0-1.493-.739,11.93H-9.03a.743.743,0,0,1-.739-.745v-8.2H13.863v8.2a.743.743,0,0,1-.739.745" transform="translate(11.245)" fill="#fff"/>
        </g>
      </g>
      <path id="Path_5415" data-name="Path 5415" d="M10.633,1.836H20.972V-4.128H10.633Zm4.432-4.475h1.478V.343H15.065Zm0,2.984,4.432,0H18.019V-2.637H19.5ZM12.111-2.639h1.478V.343H12.111Z" transform="translate(12.41 20.079)" fill="#fff"/>
      <path id="Path_5416" data-name="Path 5416" d="M5.863-.572h5.908V-2.065H5.863Z" transform="translate(6.843 22.487)" fill="#fff"/>
      <path id="Path_5417" data-name="Path 5417" d="M5.863-1.948h5.908V-3.441H5.863Z" transform="translate(6.843 20.881)" fill="#fff"/>
      <g id="Group_2868" data-name="Group 2868" transform="translate(37.245 -12.383)">
        <path id="Path_5418" data-name="Path 5418" d="M2.693,0V28.511l-.737.893-.739-.893V0H-.261V26.721l-.91-1.1-1.136.954,4.263,5.162,4.258-5.162L5.081,25.62l-.912,1.1V0Z" transform="translate(2.307)" fill="#fff"/>
      </g>
      <g id="Group_2869" data-name="Group 2869" transform="translate(0 -12.383)">
        <path id="Path_5419" data-name="Path 5419" d="M2.693,0V28.511l-.739.893-.739-.893V0H-.261V26.721l-.91-1.1-1.136.954,4.261,5.162,4.258-5.162L5.079,25.62l-.91,1.1V0Z" transform="translate(2.307)" fill="#fff"/>
      </g>
      <path id="Path_5420" data-name="Path 5420" d="M19.493-18.464h1.476v-1.491H19.493Z" transform="translate(22.751 1.607)" fill="#fff"/>
      <path id="Path_5421" data-name="Path 5421" d="M.943-18.464H2.419v-1.491H.943Z" transform="translate(1.101 1.607)" fill="#fff"/>
      <path id="Path_5422" data-name="Path 5422" d="M19.493-17.088h1.476v-1.491H19.493Z" transform="translate(22.751 3.213)" fill="#fff"/>
      <path id="Path_5423" data-name="Path 5423" d="M.943-17.088H2.419v-1.491H.943Z" transform="translate(1.101 3.213)" fill="#fff"/>
      <path id="Path_5424" data-name="Path 5424" d="M19.493-19.839h1.476v-1.493H19.493Z" transform="translate(22.751)" fill="#fff"/>
      <path id="Path_5425" data-name="Path 5425" d="M.943-19.839H2.419v-1.493H.943Z" transform="translate(1.101)" fill="#fff"/>
    </g>
  </g>
</svg>
