<svg xmlns="http://www.w3.org/2000/svg" xmlns:xlink="http://www.w3.org/1999/xlink" width="72.039" height="83.462" viewBox="0 0 72.039 83.462">
  <defs>
    <clipPath id="clip-path">
      <path id="Path_37" data-name="Path 37" d="M-799.246,66.118l34.215,12.506-11.562-15.81Z" transform="translate(799.246 -62.814)" fill="#db000c"/>
    </clipPath>
    <clipPath id="clip-path-2">
      <path id="Path_5410" data-name="Path 5410" d="M0,26.347H29.238V-26.838H0Z" transform="translate(0 26.838)" fill="none"/>
    </clipPath>
  </defs>
  <g id="Group_3031" data-name="Group 3031" transform="translate(-135.897 -290.17)">
    <g id="Group_3010" data-name="Group 3010" transform="translate(135.897 290.17)">
      <g id="Group_4" data-name="Group 4" transform="translate(27.241 67.653)">
        <path id="Path_36" data-name="Path 36" d="M-799.246,66.118l34.215,12.506-11.562-15.81Z" transform="translate(799.246 -62.814)" fill="#db000c"/>
        <g id="Group_3" data-name="Group 3" transform="translate(0 0)" clip-path="url(#clip-path)">
          <circle id="Ellipse_1" data-name="Ellipse 1" cx="36.019" cy="36.019" r="36.019" transform="translate(-25.582 -65.165)" fill="#bb0010"/>
        </g>
      </g>
      <circle id="Ellipse_2" data-name="Ellipse 2" cx="36.019" cy="36.019" r="36.019" fill="#db000c"/>
    </g>
    <g id="Group_2863" data-name="Group 2863" transform="translate(157.298 323.338)">
      <g id="Group_2862" data-name="Group 2862" transform="translate(0 -26.838)" clip-path="url(#clip-path-2)">
        <g id="Group_2861" data-name="Group 2861" transform="translate(-0.001 0)">
          <path id="Path_5409" data-name="Path 5409" d="M8.441,20.442a2.478,2.478,0,0,1-1.585,2.325v.6a.835.835,0,1,1-1.669,0v-.61a2.433,2.433,0,0,1-1.26-1.066.87.87,0,0,1,.325-1.167.821.821,0,0,1,1.12.307A.74.74,0,0,0,6.4,21.11a.783.783,0,0,0,.275-1.052.747.747,0,0,0-.65-.386A2.45,2.45,0,0,1,3.6,17.194a2.481,2.481,0,0,1,1.585-2.336v-.735a.835.835,0,1,1,1.669,0v.729a2.977,2.977,0,0,1,.908.517.877.877,0,0,1,.127,1.207.821.821,0,0,1-1.175.129c-1.391-1.151-2.043,1.25-.694,1.25a2.457,2.457,0,0,1,2.42,2.487m12.2-9.128V28.026a4.283,4.283,0,0,1-4.219,4.336h-20.8A4.284,4.284,0,0,1-8.6,28.026V11.315A3.427,3.427,0,0,1-5.225,7.847h.876V6.616C-8.852,6.584-8.838-.5-4.327-.5h20.7c4.5,0,4.534,7.081.022,7.112V7.847h.876a3.426,3.426,0,0,1,3.373,3.468M-4.327,4.9h20.7c2.295,0,2.3-3.682,0-3.682h-20.7c-2.319,0-2.259,3.682,0,3.682m23.3,6.413a1.73,1.73,0,0,0-1.7-1.752h-1.71a.846.846,0,0,1-.834-.858V6.618h-17.4V8.7a.846.846,0,0,1-.834.858h-1.71a1.73,1.73,0,0,0-1.7,1.752V28.026a2.587,2.587,0,0,0,2.548,2.62h20.8a2.585,2.585,0,0,0,2.548-2.62ZM.665-7.6a5.433,5.433,0,0,1,5.357-5.505A5.433,5.433,0,0,1,11.378-7.6,5.433,5.433,0,0,1,6.021-2.1,5.44,5.44,0,0,1,.665-7.6Zm1.669,0A3.739,3.739,0,0,0,6.021-3.812,3.742,3.742,0,0,0,9.709-7.6,3.739,3.739,0,0,0,6.021-11.39h0A3.743,3.743,0,0,0,2.335-7.6Zm4.522-8.093v-4.271a.846.846,0,0,0-.834-.858.846.846,0,0,0-.834.858v4.271a.846.846,0,0,0,.834.858.846.846,0,0,0,.834-.858m5.923,2.61v-5.141a.845.845,0,0,0-.834-.858.845.845,0,0,0-.834.858v5.141a.846.846,0,0,0,.834.858.846.846,0,0,0,.834-.858m-11.847,0v-5.141A.845.845,0,0,0,.1-19.083a.846.846,0,0,0-.834.858v5.141a.847.847,0,0,0,.834.858.846.846,0,0,0,.834-.858m13.65,31.828a8.684,8.684,0,0,1-8.561,8.8,8.684,8.684,0,0,1-8.561-8.8,8.684,8.684,0,0,1,8.561-8.8h0a8.692,8.692,0,0,1,8.561,8.8m-1.671,0a6.987,6.987,0,0,0-6.89-7.081,6.987,6.987,0,0,0-6.89,7.081,6.987,6.987,0,0,0,6.89,7.081h0a6.993,6.993,0,0,0,6.89-7.081" transform="translate(8.598 20.823)" fill="#fff"/>
        </g>
      </g>
    </g>
  </g>
</svg>
