<svg xmlns="http://www.w3.org/2000/svg" xmlns:xlink="http://www.w3.org/1999/xlink" width="72.039" height="83.462" viewBox="0 0 72.039 83.462">
  <defs>
    <clipPath id="clip-path">
      <path id="Path_37" data-name="Path 37" d="M-799.246,66.118l34.215,12.506-11.562-15.81Z" transform="translate(799.246 -62.814)" fill="#db000c"/>
    </clipPath>
    <clipPath id="clip-path-2">
      <path id="Path_5317" data-name="Path 5317" d="M0,23.513H44.519V-23.816H0Z" transform="translate(0 23.816)" fill="none"/>
    </clipPath>
  </defs>
  <g id="Group_3031" data-name="Group 3031" transform="translate(-135.622 -287)">
    <g id="Group_3007" data-name="Group 3007" transform="translate(135.622 287)">
      <g id="Group_4" data-name="Group 4" transform="translate(27.241 67.653)">
        <path id="Path_36" data-name="Path 36" d="M-799.246,66.118l34.215,12.506-11.562-15.81Z" transform="translate(799.246 -62.814)" fill="#db000c"/>
        <g id="Group_3" data-name="Group 3" transform="translate(0 0)" clip-path="url(#clip-path)">
          <circle id="Ellipse_1" data-name="Ellipse 1" cx="36.019" cy="36.019" r="36.019" transform="translate(-25.582 -65.165)" fill="#bb0010"/>
        </g>
      </g>
      <circle id="Ellipse_2" data-name="Ellipse 2" cx="36.019" cy="36.019" r="36.019" fill="#db000c"/>
    </g>
    <g id="Group_2747" data-name="Group 2747" transform="translate(149.389 298.604)" clip-path="url(#clip-path-2)">
      <g id="Group_2746" data-name="Group 2746" transform="translate(-0.001 -0.001)">
        <path id="Path_5316" data-name="Path 5316" d="M21.911,16.606a3.012,3.012,0,0,0-1.594-1.353V-3.485a2.3,2.3,0,0,0-2.238-2.353H13.6V-7.406A1.537,1.537,0,0,0,15.1-8.976V-9.9a2.415,2.415,0,0,0-.652-1.667l-.207-.217-1.061-2.784a2.237,2.237,0,0,0-2.071-1.471H7.163a2.243,2.243,0,0,0-2.079,1.481L4.021-11.77l-.2.217a2.416,2.416,0,0,0-.652,1.667v.91a1.535,1.535,0,0,0,1.49,1.57v1.568H1.672v-7.54l-1.49-.785V-16.82H-1.311v1.874l-2.238-1.176-5.221,2.744v7.54h-4.473A2.3,2.3,0,0,0-15.48-3.485v10.8a2.17,2.17,0,0,0-3.16.175,2.4,2.4,0,0,0-.57,1.57v1.568a2.446,2.446,0,0,0,.57,1.57,2.387,2.387,0,0,0-.57,1.568v1.383a2.39,2.39,0,0,0-.745,1.755h-2.238v1.568h2.238V27.1h-2.238v1.57h2.369a2.249,2.249,0,0,0,2.107,1.568h1.492a2.243,2.243,0,0,0,2.107-1.568h2.955a.848.848,0,0,1,.157.02l6.928,1.558a10.586,10.586,0,0,0,2.359.264A10.472,10.472,0,0,0,2.865,29.46l17.713-8.412A3.191,3.191,0,0,0,22.06,16.91a2.382,2.382,0,0,0-.149-.3M7.153-14.467h1.23v.785H9.876v-.785h1.23a.741.741,0,0,1,.69.491l.709,1.864H5.756l.707-1.864a.751.751,0,0,1,.69-.491M4.655-9.9a.822.822,0,0,1,.215-.56l.093-.1H13.3l.093.1a.8.8,0,0,1,.213.56v.92H4.655Zm1.492,2.49h5.966v1.568H6.148Zm-13.424-5.01,3.728-1.961,3.73,1.961v6.578H-1.311v-5.491H-5.786v5.491h-1.49ZM-2.8-5.838H-4.3V-9.761H-2.8Zm-10.439,1.57H18.079a.767.767,0,0,1,.745.783V15.136a2.4,2.4,0,0,0-.5.147l-2.172.843H3.91a3.136,3.136,0,0,0-1.828-2.892A5.667,5.667,0,0,0,3.64,7.322L5.709,5.144,4.59,3.967l1.333-1.4L4.87,1.457,3.536,2.86,2.418,1.684.349,3.86A5.141,5.141,0,0,0-6.158,7.027a2.143,2.143,0,0,0-1.119-.314H-8.769a2.181,2.181,0,0,0-1.49.6,2.207,2.207,0,0,0-.747-.471V1.133A2.984,2.984,0,0,0-8.842-1.14h3.8V-2.71h-5.221v.882a1.434,1.434,0,0,1-1.4,1.471H-12.5V6.7h-.745a2.16,2.16,0,0,0-.747.137V-3.485a.767.767,0,0,1,.747-.783M3.509,17.7h8.623L1.448,21.853a2.121,2.121,0,0,1-2.114-.324l-2.882-2.266H.927A2.958,2.958,0,0,0,3.509,17.7M-14,16.733a2.415,2.415,0,0,0-.737-1.578V13.772A2.439,2.439,0,0,0-15.3,12.2a2.428,2.428,0,0,0,.568-1.393,2.165,2.165,0,0,0,1.5.608h1.492a2.19,2.19,0,0,0,1.49-.6,2.153,2.153,0,0,0,1.492.6h1.49a2.138,2.138,0,0,0,1.119-.314,5.462,5.462,0,0,0,1.2,1.882h-2.7a5.076,5.076,0,0,0-3.69,1.61l-1.111,1.167a3.784,3.784,0,0,1-1.546.97m2.246-8.452a.767.767,0,0,1,.745.785.767.767,0,0,1-.745.785h-1.49a.769.769,0,0,1-.747-.785.769.769,0,0,1,.747-.785Zm2.238.785a.769.769,0,0,1,.745-.785h1.492a.769.769,0,0,1,.745.785.769.769,0,0,1-.745.785H-8.769a.769.769,0,0,1-.745-.785m4.475,0A3.827,3.827,0,0,1-1.311,5.144,3.827,3.827,0,0,1,2.418,9.066a3.827,3.827,0,0,1-3.728,3.921A3.827,3.827,0,0,1-5.039,9.066M3.6,5.144l-.68.715A5.264,5.264,0,0,0,1.738,4.615l.68-.715Zm-21.32,3.923a.769.769,0,0,1,.745-.785.769.769,0,0,1,.747.785v1.568a.769.769,0,0,1-.747.785.769.769,0,0,1-.745-.785Zm0,4.706a.769.769,0,0,1,.745-.785.769.769,0,0,1,.747.785v.785h-1.492Zm2.238,14.12a.769.769,0,0,1-.745.785h-1.492a.769.769,0,0,1-.745-.785V16.91a.769.769,0,0,1,.745-.785h1.492a.769.769,0,0,1,.745.785Zm36.254-9.217a1.51,1.51,0,0,1-.8.952L2.261,28.039a9.194,9.194,0,0,1-6.023.676l-6.926-1.558a1.867,1.867,0,0,0-.467-.05h-2.834V18.351a5.152,5.152,0,0,0,2.583-1.481L-10.3,15.7A3.64,3.64,0,0,1-7.66,14.557H.927a1.571,1.571,0,0,1,0,3.138H-8.024v1.568h1.987l4.465,3.519a3.545,3.545,0,0,0,3.531.541L16.42,17.7h.169v-.07l2.256-.882a1.45,1.45,0,0,1,1.781.658,1.62,1.62,0,0,1,.149,1.274" transform="translate(22.193 16.82)" fill="#fff"/>
      </g>
    </g>
  </g>
</svg>
