<svg xmlns="http://www.w3.org/2000/svg" xmlns:xlink="http://www.w3.org/1999/xlink" width="79.914" height="44.243" viewBox="0 0 79.914 44.243">
  <defs>
    <clipPath id="clip-path">
      <rect id="Rectangle_8026" data-name="Rectangle 8026" width="79.914" height="44.243" fill="#fff"/>
    </clipPath>
  </defs>
  <g id="Group_3031" data-name="Group 3031" transform="translate(-726.043 -446.334)">
    <g id="Group_2990" data-name="Group 2990" transform="translate(726.043 446.334)">
      <g id="Group_2990-2" data-name="Group 2990" clip-path="url(#clip-path)">
        <path id="Path_5497" data-name="Path 5497" d="M14.256,7.116c.007-.159.018-.29.018-.42,0-.58,0-1.159,0-1.739A5.021,5.021,0,0,1,19.268,0h.178Q39.954,0,60.462,0a5.113,5.113,0,0,1,1.753.263,4.941,4.941,0,0,1,3.4,4.1,4.267,4.267,0,0,1,.032.667c0,.535,0,1.07,0,1.6,0,.146.009.293.015.447a.835.835,0,0,0,.485.066c1.263,0,2.526-.007,3.789,0a9.591,9.591,0,0,1,3.857.786A9.9,9.9,0,0,1,79.784,15.5a7.9,7.9,0,0,1,.128,1.508c0,2.913.008,5.825,0,8.738A18.588,18.588,0,0,1,67.755,43.1a18.954,18.954,0,0,1-2.647.763,17.6,17.6,0,0,1-3.756.386c-1.219-.007-2.437,0-3.656,0q-19.326,0-38.652,0c-.639,0-1.28,0-1.916-.048A18.56,18.56,0,0,1,.77,30.856a19.516,19.516,0,0,1-.691-3.941c-.068-.891-.07-1.781-.071-2.672,0-2.393-.019-4.785.005-7.178a9.739,9.739,0,0,1,3.033-7.1A9.678,9.678,0,0,1,8.324,7.29a10.313,10.313,0,0,1,1.728-.154q1.85,0,3.7,0c.16,0,.319-.012.5-.019M2.883,24.956c.114-.023.186-.035.255-.052A19.712,19.712,0,0,1,6.7,24.361a19.7,19.7,0,0,1,14.793,5.43,1.69,1.69,0,0,0,.761.424q4.1,1.1,8.2,2.209a38.637,38.637,0,0,0,5.738,1.225c.96.109,1.921.2,2.886.226a30.724,30.724,0,0,0,4.8-.243,28.693,28.693,0,0,0,3.713-.709q5.093-1.361,10.183-2.73a1.443,1.443,0,0,0,.644-.364,19.606,19.606,0,0,1,12.6-5.467,18.377,18.377,0,0,1,5.092.4c.3.065.6.126.919.194.009-.136.021-.239.021-.341q0-3.789,0-7.579a6.382,6.382,0,0,0-.587-2.724,6.991,6.991,0,0,0-6.446-4.3c-1.35-.055-2.7-.011-4.057-.008a1.959,1.959,0,0,0-.317.055V14c0,1,0,1.991,0,2.987a1.963,1.963,0,0,1-.046.53,1.411,1.411,0,0,1-1.526,1.03,1.427,1.427,0,0,1-1.277-1.278c-.013-.148-.007-.3-.007-.446q0-3.143,0-6.286c0-.16-.007-.321-.011-.5A2.38,2.38,0,0,0,62.132,10H17.817c-.134,0-.268-.005-.4,0a2.153,2.153,0,0,0-.275.055c0,.162-.007.309-.007.456q0,1.337,0,2.675c0,1.263,0,2.526,0,3.79a2.146,2.146,0,0,1-.059.572,1.411,1.411,0,0,1-1.459,1.005,1.436,1.436,0,0,1-1.319-1.187,2.525,2.525,0,0,1-.019-.445q0-1.493,0-2.987c0-1.174,0-2.348,0-3.522,0-.127.044-.269-.083-.4C14.1,10.013,14,10,13.9,10c-1.293,0-2.586-.005-3.879,0A7.146,7.146,0,0,0,9,10.074a7.016,7.016,0,0,0-3.9,1.894A6.971,6.971,0,0,0,2.873,17.1c-.025,2.511-.006,5.023-.006,7.534,0,.088.008.176.015.322m.16,2.884a1.616,1.616,0,0,0,0,.3c.124.58.235,1.164.387,1.737a13.364,13.364,0,0,0,1.35,3.284,10.507,10.507,0,0,0,.832,1.419c.485.6.974,1.2,1.477,1.783a26.258,26.258,0,0,0,2.046,1.918,2.568,2.568,0,0,0,.282.217,15.719,15.719,0,0,0,2.776,1.591,15.139,15.139,0,0,0,4,1.175,7.357,7.357,0,0,0,.972.11c2.273.01,4.545.006,6.818,0a1.819,1.819,0,0,0,.269-.042c-.031-.239-.049-.461-.09-.678-.087-.452-.169-.905-.282-1.351A16.169,16.169,0,0,0,8.254,27.119a17.757,17.757,0,0,0-3.719.333,9.991,9.991,0,0,0-1.493.388m73.827,0c-.134-.044-.257-.09-.383-.124a16.741,16.741,0,0,0-3.6-.562,17.369,17.369,0,0,0-4.212.28A16.181,16.181,0,0,0,55.84,40.639c-.04.229-.057.461-.089.727.2,0,.356.011.517.009,1.961-.023,3.923-.064,5.884-.061a11.593,11.593,0,0,0,2.3-.233,15.61,15.61,0,0,0,4.807-1.815,15.9,15.9,0,0,0,5.349-5.077,15.725,15.725,0,0,0,2.239-5.541,2.556,2.556,0,0,0,.024-.811M17.163,7.1a1.813,1.813,0,0,0,.588.039h44.4c.119,0,.238,0,.357,0,.084,0,.167-.024.279-.041,0-.793.044-1.566-.02-2.333A2.076,2.076,0,0,0,60.946,2.9a4.887,4.887,0,0,0-.666-.037q-20.327,0-40.654,0a2.389,2.389,0,0,0-.312,0,4.059,4.059,0,0,0-.7.117A2.108,2.108,0,0,0,17.139,5c-.016.624,0,1.248,0,1.872a1.88,1.88,0,0,0,.027.22m9.9,34.283H52.3c.1,0,.209.006.312,0a2.378,2.378,0,0,0,.254-.047,21.5,21.5,0,0,1,.427-2.61,19.026,19.026,0,0,1,.783-2.505A21.824,21.824,0,0,1,55.228,33.8c-.188.038-.317.056-.442.09q-2.041.547-4.08,1.1a47.777,47.777,0,0,1-5.9,1.338c-.956.133-1.916.248-2.879.292a34.449,34.449,0,0,1-6.359-.235,29.424,29.424,0,0,1-2.934-.522c-1.253-.307-2.5-.636-3.748-.963-1.305-.342-2.608-.695-3.912-1.041a2.69,2.69,0,0,0-.279-.039,18.457,18.457,0,0,1,2.361,7.562" transform="translate(-0.001 -0.001)" fill="#fff"/>
        <path id="Path_5498" data-name="Path 5498" d="M434.877,135.59a7.134,7.134,0,1,1,7.143-7.1,7.132,7.132,0,0,1-7.143,7.1m-.016-2.863a4.27,4.27,0,1,0-4.253-4.3,4.263,4.263,0,0,0,4.253,4.3" transform="translate(-382.433 -108.472)" fill="#fff"/>
        <path id="Path_5499" data-name="Path 5499" d="M196.308,156.828a4.28,4.28,0,1,1,4.279-4.274,4.279,4.279,0,0,1-4.279,4.274m-.005-2.862a1.417,1.417,0,1,0-1.425-1.4,1.413,1.413,0,0,0,1.425,1.4" transform="translate(-171.674 -132.564)" fill="#fff"/>
        <path id="Path_5500" data-name="Path 5500" d="M317.521,156.828a4.28,4.28,0,1,1,4.3-4.254,4.279,4.279,0,0,1-4.3,4.254m.009-2.862a1.417,1.417,0,1,0-1.42-1.4,1.413,1.413,0,0,0,1.42,1.4" transform="translate(-280.067 -132.564)" fill="#fff"/>
      </g>
    </g>
  </g>
</svg>
